<svg width="139" height="101" viewBox="0 0 139 101" fill="none" xmlns="http://www.w3.org/2000/svg">
<path d="M71.0854 1.59172L74.1556 11.041H84.0907C84.4796 11.041 84.8585 11.1641 85.1731 11.3927C85.4877 11.6212 85.7219 11.9435 85.8421 12.3134C85.9623 12.6832 85.9624 13.0816 85.8422 13.4515C85.7221 13.8214 85.488 14.1437 85.1734 14.3723L77.1353 20.2127L80.2055 29.6619C80.3258 30.0318 80.3258 30.4303 80.2057 30.8002C80.0855 31.1701 79.8513 31.4924 79.5366 31.721C79.2219 31.9496 78.843 32.0727 78.454 32.0726C78.0651 32.0725 77.6862 31.9493 77.3716 31.7206L69.3339 25.8802L61.2961 31.7206C60.9815 31.9493 60.6026 32.0725 60.2137 32.0726C59.8247 32.0727 59.4458 31.9496 59.1311 31.721C58.8164 31.4924 58.5822 31.1701 58.462 30.8002C58.3419 30.4303 58.3419 30.0318 58.4622 29.6619L61.5324 20.2121L53.4943 14.3717C53.1797 14.1431 52.9456 13.8208 52.8255 13.4509C52.7054 13.081 52.7054 12.6826 52.8256 12.3128C52.9458 11.9429 53.18 11.6206 53.4946 11.3921C53.8092 11.1635 54.1881 11.0404 54.577 11.0404H64.5121L67.5823 1.59113C67.7026 1.22126 67.9368 0.898951 68.2515 0.670398C68.5662 0.441845 68.9451 0.318782 69.3341 0.318848C69.723 0.318914 70.1019 0.442105 70.4165 0.670764C70.7311 0.899424 70.9653 1.22181 71.0854 1.59172Z" fill="#FFE07D"/>
<path d="M34.0659 18.8576L36.4969 26.343H44.3674C44.6754 26.3432 44.9754 26.4408 45.2244 26.6218C45.4735 26.8029 45.659 27.0581 45.7541 27.3509C45.8493 27.6438 45.8494 27.9593 45.7544 28.2522C45.6594 28.5451 45.4741 28.8004 45.2251 28.9816L38.8576 33.6064L41.2886 41.0919C41.3837 41.3849 41.3836 41.7004 41.2883 41.9934C41.193 42.2863 41.0075 42.5415 40.7583 42.7225C40.509 42.9035 40.2089 43.001 39.9009 43.001C39.5928 43.001 39.2927 42.9035 39.0435 42.7224L32.676 38.0961L26.3086 42.7224C26.0593 42.9034 25.7593 43.0008 25.4513 43.0007C25.1433 43.0007 24.8433 42.9032 24.5941 42.7222C24.345 42.5412 24.1595 42.286 24.0642 41.9932C23.9689 41.7003 23.9687 41.3848 24.0637 41.0919L26.4947 33.6064L20.1273 28.9816C19.8783 28.8004 19.693 28.5451 19.598 28.2522C19.503 27.9594 19.503 27.6439 19.5982 27.3511C19.6933 27.0583 19.8787 26.803 20.1277 26.622C20.3768 26.4409 20.6767 26.3433 20.9846 26.343H28.8552L31.2862 18.8576C31.3803 18.5628 31.5656 18.3056 31.8154 18.1231C32.0653 17.9406 32.3667 17.8423 32.676 17.8423C32.9854 17.8423 33.2868 17.9406 33.5366 18.1231C33.7865 18.3056 33.9718 18.5628 34.0659 18.8576Z" fill="#FFE07D"/>
<path d="M14.8778 49.6902L17.3089 57.1757H25.1806C25.4885 57.1759 25.7885 57.2735 26.0375 57.4546C26.2865 57.6357 26.4719 57.8909 26.5671 58.1837C26.6622 58.4766 26.6623 58.792 26.5672 59.0849C26.4722 59.3777 26.2869 59.633 26.038 59.8142L19.6705 64.4391L22.1015 71.9245C22.1965 72.2175 22.1963 72.533 22.1011 72.8258C22.0058 73.1187 21.8203 73.3738 21.5711 73.5548C21.3219 73.7358 21.0219 73.8333 20.7139 73.8334C20.406 73.8334 20.1059 73.736 19.8567 73.5551L13.4904 68.9311L7.12291 73.5574C6.8737 73.7385 6.57358 73.836 6.26556 73.836C5.95753 73.836 5.65741 73.7385 5.40817 73.5575C5.15894 73.3765 4.9734 73.1213 4.87812 72.8284C4.78285 72.5354 4.78273 72.2199 4.87778 71.9269L7.3088 64.4414L0.941317 59.8166C0.692329 59.6354 0.507056 59.3801 0.412027 59.0872C0.316998 58.7943 0.317087 58.4788 0.41228 58.186C0.507473 57.8931 0.692888 57.6379 0.941978 57.4568C1.19107 57.2758 1.49106 57.1782 1.79899 57.178H9.67073L12.1017 49.6926C12.1964 49.3991 12.3817 49.1432 12.6309 48.9615C12.8802 48.7799 13.1805 48.6819 13.4889 48.6816C13.7973 48.6814 14.0979 48.7788 14.3474 48.9601C14.597 49.1413 14.7827 49.3969 14.8778 49.6902Z" fill="#FFE07D"/>
<path d="M126.349 49.6901L128.78 57.1756H136.652C136.959 57.1758 137.259 57.2734 137.508 57.4545C137.758 57.6355 137.943 57.8908 138.038 58.1836C138.133 58.4764 138.133 58.7919 138.038 59.0848C137.943 59.3776 137.758 59.6329 137.509 59.8141L131.141 64.439L133.572 71.9244C133.667 72.2174 133.667 72.5328 133.572 72.8257C133.477 73.1185 133.291 73.3737 133.042 73.5547C132.793 73.7357 132.493 73.8332 132.185 73.8332C131.877 73.8333 131.577 73.7359 131.328 73.555L124.96 68.9286L118.594 73.5573C118.345 73.7384 118.045 73.8359 117.737 73.8359C117.428 73.8359 117.128 73.7384 116.879 73.5574C116.63 73.3764 116.444 73.1212 116.349 72.8282C116.254 72.5353 116.254 72.2198 116.349 71.9268L118.78 64.4413L112.412 59.8165C112.163 59.6353 111.978 59.38 111.883 59.0871C111.788 58.7942 111.788 58.4787 111.883 58.1858C111.978 57.893 112.164 57.6378 112.413 57.4567C112.662 57.2757 112.962 57.1781 113.27 57.1779H121.141L123.572 49.6925C123.666 49.3985 123.851 49.1421 124.101 48.9601C124.35 48.7781 124.651 48.68 124.959 48.6797C125.268 48.6794 125.569 48.7771 125.819 48.9587C126.068 49.1402 126.254 49.3963 126.349 49.6901Z" fill="#FFE07D"/>
<path d="M107.375 18.8576L109.806 26.343H117.678C117.986 26.3433 118.286 26.4409 118.535 26.622C118.784 26.803 118.969 27.0583 119.064 27.3511C119.159 27.6439 119.159 27.9594 119.064 28.2522C118.969 28.5451 118.784 28.8004 118.535 28.9816L112.168 33.6064L114.599 41.0919C114.694 41.3848 114.694 41.7003 114.598 41.9932C114.503 42.286 114.317 42.5412 114.068 42.7222C113.819 42.9032 113.519 43.0007 113.211 43.0007C112.903 43.0008 112.603 42.9034 112.354 42.7224L105.986 38.0961L99.6201 42.7248C99.3709 42.9058 99.0708 43.0034 98.7628 43.0034C98.4547 43.0034 98.1546 42.9059 97.9054 42.7249C97.6561 42.5439 97.4706 42.2886 97.3753 41.9957C97.28 41.7028 97.2799 41.3872 97.375 41.0943L99.806 33.6088L93.4385 28.9839C93.1895 28.8028 93.0042 28.5474 92.9092 28.2545C92.8142 27.9616 92.8143 27.6462 92.9095 27.3533C93.0047 27.0605 93.1901 26.8052 93.4392 26.6242C93.6883 26.4432 93.9883 26.3456 94.2962 26.3454H102.167L104.598 18.86C104.692 18.566 104.877 18.3096 105.127 18.1276C105.376 17.9456 105.677 17.8474 105.986 17.8472C106.294 17.8469 106.595 17.9446 106.845 18.1262C107.094 18.3077 107.28 18.5638 107.375 18.8576Z" fill="#FFE07D"/>
<path d="M56.1362 52.5723H62.1362V87.5723H55.2362V59.8723L48.6362 61.7223L46.9362 55.8223L56.1362 52.5723ZM92.2221 64.0223C92.2221 66.7223 91.5221 69.0889 90.1221 71.1223H90.1721L79.2721 87.5723H71.3721L79.1721 76.1723C75.5388 76.1056 72.5721 74.9556 70.2721 72.7223C68.0054 70.4556 66.8721 67.5556 66.8721 64.0223C66.8721 60.4556 68.0388 57.5389 70.3721 55.2723C72.7388 53.0056 75.7888 51.8723 79.5221 51.8723C83.2888 51.8723 86.3388 53.0056 88.6721 55.2723C91.0388 57.5056 92.2221 60.4223 92.2221 64.0223ZM73.7221 64.0223C73.7221 65.7556 74.2721 67.1389 75.3721 68.1723C76.5054 69.2056 77.8888 69.7223 79.5221 69.7223C81.2221 69.7223 82.6221 69.2056 83.7221 68.1723C84.8221 67.1389 85.3721 65.7556 85.3721 64.0223C85.3721 62.2889 84.8221 60.9223 83.7221 59.9223C82.6221 58.8889 81.2221 58.3723 79.5221 58.3723C77.8888 58.3723 76.5054 58.8889 75.3721 59.9223C74.2721 60.9556 73.7221 62.3223 73.7221 64.0223Z" fill="#365E7D"/>
</svg>
