<svg width="94" height="95" viewBox="0 0 94 95" fill="none" xmlns="http://www.w3.org/2000/svg">
<path d="M93.4688 62.0349V74.8943H59.7129C60.2265 72.7072 60.8925 70.5587 61.7061 68.4646H65.2424C67.1826 68.4646 68.7788 65.5712 68.7788 62.0349H93.4688Z" fill="#C03A2B"/>
<path d="M93.4692 60.4275V65.2498H70.9653V58.8201H91.8618C92.7496 58.8201 93.4692 59.5397 93.4692 60.4275Z" fill="#393F4A"/>
<path d="M75.7873 7.38257H87.0393V26.6716H75.7873V7.38257Z" fill="#F5EFCA"/>
<path d="M67.7506 7.38257H77.3952V26.6716H67.7506V7.38257Z" fill="#285680"/>
<path d="M93.4685 8.98999V25.0642C93.4685 25.952 92.7488 26.6716 91.861 26.6716H85.4314V7.38257H91.861C92.7488 7.38257 93.4685 8.10224 93.4685 8.98999Z" fill="#C03A2B"/>
<path d="M67.7506 33.1013H91.862C92.7497 33.1013 93.4694 33.821 93.4694 34.7087V50.783C93.4694 51.6707 92.7497 52.3904 91.862 52.3904H67.7506V33.1013Z" fill="#F5EFCA"/>
<path d="M82.2168 45.9607C83.9923 45.9607 85.4317 44.5214 85.4317 42.7459C85.4317 40.9703 83.9923 39.531 82.2168 39.531C80.4413 39.531 79.002 40.9703 79.002 42.7459C79.002 44.5214 80.4413 45.9607 82.2168 45.9607Z" fill="#C03A2B"/>
<path d="M8.2754 1.09766L14.7051 68.6094C12.7269 68.9248 10.9017 69.8656 9.49704 71.2938C7.74495 73.0298 0.238282 75.441 0.238281 78.1093L0.238282 10.5975C0.236414 5.89255 3.63512 1.87527 8.2754 1.09766Z" fill="#C03A2B"/>
<path d="M70.9645 78.1091V82.9314C70.9565 85.5914 68.8022 87.7457 66.1422 87.7537H64.5348C64.2776 87.4 59.9376 85.4229 59.7125 85.0532C59.198 84.1948 58.7519 83.2972 58.3783 82.3688C57.6172 80.5062 57.2242 78.5138 57.221 76.5017L70.9645 78.1091Z" fill="#B19046"/>
<path d="M70.9645 4.16775V65.2498C70.9645 67.018 69.5178 70.0721 67.7496 70.0721L9.88239 69.9274C9.34851 69.924 8.81556 69.9725 8.29105 70.0721H8.27497V1.09757C8.80521 1.00017 9.34328 0.951743 9.88239 0.952901H67.7496C69.5229 0.958197 70.9592 2.39444 70.9645 4.16775Z" fill="#FFE07D"/>
<path d="M64.5357 87.1509C7.52036 87.1509 10.6757 87.2007 9.72253 87.0609C5.04701 86.8744 1.30168 83.1227 1.12324 78.4468C0.944789 73.771 4.39328 69.7447 9.04099 69.2024C15.3019 69.2024 -12.5306 69.0674 64.5389 69.0674C60.3118 74.3537 60.3105 81.863 64.5357 87.1509Z" fill="#F5EFCA"/>
<path d="M35.6012 79.7166H8.27506C7.3873 79.7166 6.66763 78.9969 6.66763 78.1091C6.66763 77.2214 7.3873 76.5017 8.27506 76.5017H35.6012C36.489 76.5017 37.2087 77.2214 37.2087 78.1091C37.2087 78.9969 36.489 79.7166 35.6012 79.7166Z" fill="#CBB292"/>
<path d="M59.6165 37.5219C58.0285 41.271 55.4226 44.5005 52.0938 46.8449V46.8288C50.5069 46.2956 48.8602 45.9608 47.1911 45.8322C44.9585 45.6277 42.7076 45.7741 40.5203 46.2663C38.0166 46.9356 35.7186 48.2171 33.8334 49.9955C31.796 49.4357 29.8517 48.58 28.0628 47.4557V47.4397C28.4034 46.3799 28.6561 45.2939 28.8183 44.1927C28.8749 42.5894 28.7291 40.9854 28.3843 39.4186C28.0146 36.1073 30.2971 33.5355 30.5704 30.3367C30.7082 29.141 30.0112 28.006 28.8826 27.588C27.2912 26.8968 25.4748 26.8647 23.8996 26.2217C21.6185 25.1142 20.0478 22.9333 19.7203 20.4189C20.6441 18.2972 21.9033 16.3379 23.4495 14.6161C26.7627 14.652 30.0674 14.274 33.2869 13.4909C36.7103 12.8624 39.6098 10.5992 41.0508 7.43091C43.9021 7.61604 46.6884 8.36452 49.2486 9.63308V9.64915L49.2325 9.66523C47.4316 11.791 45.1273 13.4322 42.5296 14.4393C40.5542 15.226 39.0531 16.8813 38.4628 18.924C37.9324 21.8656 40.7614 23.6498 43.2369 24.1963C46.1784 24.8554 48.8146 26.4949 48.8307 29.8062C48.773 31.1991 48.4682 32.5707 47.9305 33.8569C47.1955 35.3762 46.7123 37.0049 46.4999 38.6792C46.4755 39.6444 46.9042 40.5655 47.6585 41.1682C48.4127 41.771 49.4056 41.9861 50.3417 41.7494C51.6926 41.5218 52.9736 40.9885 54.087 40.1902C54.2156 40.1098 54.3442 40.0294 54.4727 39.933C56.0208 38.8136 57.7658 37.9957 59.6165 37.5219Z" fill="#2FA8CC"/>
<path d="M28.3841 39.4184C28.7289 40.9852 28.8747 42.5892 28.8181 44.1925C28.6558 45.2937 28.4032 46.3797 28.0626 47.4395V47.4556C18.9882 41.7388 15.4447 30.2547 19.72 20.4187C20.0476 22.9331 21.6183 25.114 23.8993 26.2215C25.4746 26.8645 27.291 26.8966 28.8824 27.5878C30.011 28.0058 30.708 29.1408 30.5701 30.3365C30.2969 33.5353 28.0143 36.1072 28.3841 39.4184Z" fill="#4FBA6F"/>
<path d="M41.0506 7.4308C39.6096 10.5991 36.7101 12.8623 33.2867 13.4908C30.0672 14.2739 26.7625 14.6519 23.4493 14.616C27.5604 10.0079 33.4445 7.37584 39.62 7.38258C40.1022 7.38258 40.5683 7.39866 41.0506 7.4308Z" fill="#B0D3F0"/>
<path d="M52.093 46.8288V46.8449C46.7831 50.5717 40.0844 51.7275 33.8327 49.9954C35.7179 48.2171 38.0158 46.9355 40.5196 46.2662C42.7069 45.7741 44.9577 45.6277 47.1904 45.8322C48.8595 45.9608 50.5062 46.2955 52.093 46.8288Z" fill="#B0D3F0"/>
<path d="M61.3209 29.0829C61.3212 31.9813 60.7419 34.8506 59.617 37.5218C57.7663 37.9956 56.0214 38.8136 54.4733 39.933C54.3447 40.0294 54.2161 40.1098 54.0875 40.1902C52.9742 40.9885 51.6931 41.5218 50.3422 41.7494C49.4061 41.986 48.4132 41.771 47.659 41.1682C46.9047 40.5654 46.476 39.6444 46.5005 38.6792C46.7129 37.0049 47.196 35.3762 47.9311 33.8569C48.4687 32.5707 48.7735 31.1991 48.8312 29.8062C48.8151 26.4949 46.179 24.8554 43.2374 24.1963C40.7619 23.6498 37.9329 21.8655 38.4633 18.924C39.0536 16.8813 40.5547 15.2259 42.5301 14.4393C45.1278 13.4322 47.4322 11.791 49.2331 9.66521L49.2491 9.64913V9.63306C56.6435 13.2941 61.3219 20.8318 61.3209 29.0829Z" fill="#4FBA6F"/>
<path d="M53.283 58.8201H25.9568C25.0691 58.8201 24.3494 58.1004 24.3494 57.2126C24.3494 56.3249 25.0691 55.6052 25.9568 55.6052H53.283C54.1708 55.6052 54.8904 56.3249 54.8904 57.2126C54.8904 58.1004 54.1708 58.8201 53.283 58.8201Z" fill="#F29C1F"/>
<path d="M8.83811 71.7759C9.56145 71.6312 5.75507 71.6794 66.1427 71.6794C68.8027 71.6715 70.9571 69.5171 70.965 66.8572V65.2498C70.9597 67.0231 69.5235 68.4593 67.7502 68.4646H9.88293C6.04193 68.438 2.55893 70.7155 1.04331 74.245C-0.472307 77.7744 0.274581 81.8684 2.93886 84.6353C4.82751 86.5837 7.41092 87.7049 10.124 87.7537H66.1427C68.8027 87.7457 70.9571 85.5914 70.965 82.9314V78.1091C70.965 77.2214 70.2453 76.5017 69.3576 76.5017C68.4698 76.5017 67.7502 77.2214 67.7502 78.1091V82.9314C67.7502 83.8192 67.0305 84.5388 66.1427 84.5388H10.2687C8.47877 84.5633 6.75298 83.873 5.47368 82.6208C4.19438 81.3687 3.46719 79.6581 3.45324 77.868C3.56969 74.8146 5.82209 72.2664 8.83811 71.7759ZM63.6143 86.307C63.5532 86.2025 63.4953 86.0964 63.4374 85.9855C63.4969 86.0932 63.5516 86.1993 63.6143 86.307Z" fill="#E64C3C"/>
<path d="M25.2388 94.0116L21.8536 92.319C21.4012 92.093 20.8689 92.093 20.4165 92.319L17.0313 94.0116C16.5334 94.2604 15.9422 94.2339 15.4686 93.9416C14.9949 93.6493 14.7062 93.1328 14.7054 92.5762V78.1094H27.5647V92.5762C27.5639 93.1328 27.2752 93.6493 26.8015 93.9416C26.3279 94.2339 25.7367 94.2604 25.2388 94.0116Z" fill="#C03A2B"/>
<path d="M93.4687 71.6794V76.5017C93.4687 77.3895 92.749 78.1091 91.8613 78.1091H61.3202C61.3198 75.8904 61.7967 73.6975 62.7187 71.6794H93.4687Z" fill="#F0C419"/>
</svg>
