<svg width="100" height="81" viewBox="0 0 100 81" fill="none" xmlns="http://www.w3.org/2000/svg">
<path d="M94.0662 68.9342H99.1871V0.657227H0.185547V68.9342H63.3417H75.2902H82.1178H94.0662Z" fill="#365E7D"/>
<path d="M92.3599 46.7442V14.3127H92.3667C88.5568 14.3127 85.5288 11.2949 85.5288 7.48506L85.5323 7.55679L13.8414 7.48486H13.8687C13.8687 11.3732 10.9294 14.3125 7.04107 14.3125L7.01361 55.2788V55.2753C10.9019 55.2753 13.8412 58.1891 13.8412 62.0774V62.0859L65.049 62.1064H83.7176L90.6527 52.86L92.3599 46.7442Z" fill="#C5E7F7"/>
<path d="M90.2247 60.1855L99.1871 76.8301L92.6612 75.565L88.9443 80.6711L83.8229 62.7464L90.2247 60.1855Z" fill="#DC4D41"/>
<path d="M90.2247 60.1855L83.8229 62.7462L85.2659 67.7946C88.0584 67.5103 90.6063 66.4067 92.6739 64.7332L90.2247 60.1855Z" fill="#FF7260"/>
<path d="M77.421 60.1855L68.4586 76.8301L74.9845 75.565L78.7014 80.6711L83.8227 62.7464L77.421 60.1855Z" fill="#DC4D41"/>
<path d="M82.3802 67.7951L83.8232 62.7467L77.4215 60.186L74.9735 64.7326C77.0412 66.4072 79.5878 67.5108 82.3802 67.7951Z" fill="#FF7260"/>
<path d="M83.8237 64.0273C89.4805 64.0273 94.0663 59.4415 94.0663 53.7846C94.0663 48.1278 89.4805 43.542 83.8237 43.542C78.1668 43.542 73.581 48.1278 73.581 53.7846C73.581 59.4415 78.1668 64.0273 83.8237 64.0273Z" fill="#DC4D41"/>
<path d="M83.8233 58.9057C86.6517 58.9057 88.9446 56.6128 88.9446 53.7844C88.9446 50.956 86.6517 48.6631 83.8233 48.6631C80.9949 48.6631 78.702 50.956 78.702 53.7844C78.702 56.6128 80.9949 58.9057 83.8233 58.9057Z" fill="#FF7260"/>
<path d="M25.4059 44.335C22.8779 44.335 20.7899 43.495 19.1419 41.815C17.4939 40.135 16.6699 38.063 16.6699 35.599C16.6699 33.119 17.4939 31.047 19.1419 29.383C20.7899 27.703 22.8779 26.863 25.4059 26.863C26.9259 26.863 28.3259 27.223 29.6059 27.943C30.9019 28.647 31.9099 29.607 32.6299 30.823L29.7739 32.479C29.3579 31.727 28.7659 31.143 27.9979 30.727C27.2299 30.295 26.3659 30.079 25.4059 30.079C23.7739 30.079 22.4539 30.591 21.4459 31.615C20.4539 32.639 19.9579 33.967 19.9579 35.599C19.9579 37.215 20.4539 38.535 21.4459 39.559C22.4539 40.583 23.7739 41.095 25.4059 41.095C26.3659 41.095 27.2299 40.887 27.9979 40.471C28.7819 40.039 29.3739 39.455 29.7739 38.719L32.6299 40.375C31.9099 41.591 30.9099 42.559 29.6299 43.279C28.3499 43.983 26.9419 44.335 25.4059 44.335ZM37.9765 40.831H45.0565V43.999H34.6645V27.199H44.9365V30.367H37.9765V33.943H44.3365V37.063H37.9765V40.831ZM50.7031 40.831H57.1111V43.999H47.3911V27.199H50.7031V40.831ZM68.3937 27.199V30.367H63.8577V43.999H60.5457V30.367H56.0337V27.199H68.3937ZM79.8239 43.999L78.8159 40.975H72.1199L71.1119 43.999H67.5359L73.4159 27.199H77.5199L83.4239 43.999H79.8239ZM73.1759 37.879H77.7839L75.4799 31.015L73.1759 37.879Z" fill="#00B4FF"/>
</svg>
