<svg width="129" height="90" viewBox="0 0 129 90" fill="none" xmlns="http://www.w3.org/2000/svg">
<path d="M27.3657 61.5342L28.573 64.0275C28.573 64.0275 47.7166 79.5724 64.1138 79.5724C80.5109 79.5724 99.7409 64.0275 99.7409 64.0275L100.86 61.5342H100.861C99.0204 56.034 96.7601 48.4828 95.1746 40.5073L91.6709 38.5371H36.0419L33.0517 40.5066C31.4662 48.4823 29.2057 56.0338 27.3655 61.5342H27.3657Z" fill="#365E7D"/>
<path d="M43.6249 39.3834L44.9096 38.5371H36.0419L33.0517 40.5066C31.4662 48.4823 29.2057 56.0338 27.3655 61.5342H27.3657L28.573 64.0275C28.573 64.0275 31.5194 66.4197 36.0897 69.3272C38.7682 60.38 41.4997 50.0733 43.6249 39.3834Z" fill="#294B64"/>
<path d="M126.878 21.5934L67.3121 1.46227C65.2376 0.761274 62.9899 0.761274 60.9154 1.46227L1.34896 21.5934C-0.188779 22.1132 -0.324528 24.2354 1.13446 24.9467L59.7359 53.517C62.4989 54.864 65.7284 54.864 68.4914 53.517L127.093 24.9467C128.552 24.2354 128.416 22.1132 126.878 21.5934Z" fill="#477B9E"/>
<path d="M19.1626 24.9459C17.7034 24.2346 17.8391 22.1124 19.3771 21.5926L73.1276 3.42697L67.3119 1.46148C65.2374 0.760235 62.9897 0.760235 60.9152 1.46148L1.34896 21.5926C-0.188779 22.1124 -0.324528 24.2346 1.13446 24.9459L59.7359 53.5162C62.4989 54.8632 65.7284 54.8632 68.4914 53.5162L73.1279 51.2557L19.1626 24.9459Z" fill="#3F6D8E"/>
<path d="M113.68 72.1886C112.613 72.1886 111.748 71.3239 111.748 70.2571V34.5345C111.748 33.6175 111.129 32.8153 110.241 32.5836L66.6475 21.0891C65.616 20.8171 65.0003 19.7604 65.2723 18.7289C65.5443 17.6974 66.6003 17.0809 67.6325 17.3536L111.222 28.8468C113.805 29.5213 115.611 31.8606 115.611 34.5343V70.2566C115.611 71.3239 114.746 72.1886 113.68 72.1886Z" fill="#ECF4FF"/>
<path d="M117.061 74.5503H110.298L109.494 87.0585C109.427 88.095 110.227 88.9735 111.236 88.9735H116.123C117.133 88.9735 117.932 88.095 117.865 87.0585L117.061 74.5503Z" fill="#FFD064"/>
<path d="M113.895 87.0585L114.699 74.5503H110.298L109.494 87.0585C109.427 88.095 110.227 88.9732 111.236 88.9732H115.638C114.628 88.9732 113.829 88.095 113.895 87.0585Z" fill="#EBB044"/>
<path d="M115.245 65.5605H112.115C110.555 65.5605 109.279 66.8368 109.279 68.3965V74.0258C109.279 74.5378 109.694 74.953 110.206 74.953H117.154C117.666 74.953 118.081 74.5378 118.081 74.0258V68.3965C118.081 66.8365 116.805 65.5605 115.245 65.5605Z" fill="#FFE07D"/>
<path d="M114.257 74.0258V68.3965C114.257 67.1605 115.06 66.1053 116.169 65.7193C115.879 65.6183 115.569 65.5605 115.245 65.5605H112.114C110.554 65.5605 109.278 66.8368 109.278 68.3965V74.0258C109.278 74.538 109.693 74.953 110.205 74.953H115.185C114.672 74.953 114.257 74.538 114.257 74.0258Z" fill="#FFD064"/>
<path d="M64.5115 13.847C60.7975 13.6221 57.7155 16.5673 57.7155 20.2325V20.265C57.7238 21.9133 59.1048 23.2273 60.7533 23.2273H67.4735C69.067 23.2273 70.603 21.9943 70.5032 19.919C70.3487 16.6915 67.737 14.0423 64.5115 13.847Z" fill="#3F6D8E"/>
<path d="M63.511 20.265C63.511 20.2543 63.511 20.2435 63.511 20.2325C63.511 17.747 64.9292 15.5943 66.9995 14.535C66.2417 14.147 65.402 13.901 64.5122 13.847C60.7983 13.6221 57.7163 16.5673 57.7163 20.2325V20.265C57.7245 21.9133 59.1055 23.2273 60.754 23.2273H66.5487C64.9002 23.2273 63.5192 21.9133 63.511 20.265Z" fill="#365E7D"/>
<path d="M100.86 61.5347C94.1472 67.0524 83.2307 73.2281 71.4375 77.0286C66.763 78.5353 61.5821 78.5736 56.7883 77.0286C45.0219 73.2366 34.1094 67.0751 27.3655 61.5347C26.7202 63.4629 26.1262 65.1402 25.6317 66.4934C24.782 68.8181 25.514 71.4314 27.46 72.9609C38.2417 81.4348 49.6224 86.0648 56.7883 88.3743C59.1548 89.137 61.6266 89.5185 64.1128 89.5185C66.5993 89.5185 69.0708 89.137 71.4373 88.3743C78.6032 86.0648 89.9839 81.4348 100.766 72.9609C102.712 71.4314 103.444 68.8181 102.594 66.4934C102.099 65.1399 101.506 63.4627 100.86 61.5347Z" fill="#FFE07D"/>
<path d="M36.5244 67.8644C33.0027 65.7719 29.8917 63.6097 27.3655 61.5342C26.7202 63.4624 26.1265 65.1397 25.6317 66.4929C24.782 68.8176 25.514 71.4309 27.46 72.9604C29.4937 74.5586 31.5485 76.0199 33.5924 77.3551C34.5454 74.4031 35.5337 71.2231 36.5244 67.8644Z" fill="#FFD064"/>
</svg>
