<svg width="14" height="15" viewBox="0 0 14 15" fill="none" xmlns="http://www.w3.org/2000/svg">
<path d="M13.5003 10.8597V12.7453C13.501 12.9203 13.4651 13.0936 13.395 13.254C13.3249 13.4143 13.222 13.5583 13.093 13.6767C12.9641 13.795 12.8118 13.8851 12.646 13.9412C12.4801 13.9972 12.3044 14.0181 12.1301 14.0023C10.196 13.7922 8.33816 13.1313 6.70587 12.0727C5.18723 11.1077 3.8997 9.82019 2.93469 8.30155C1.87246 6.66184 1.21141 4.79497 1.0051 2.85219C0.989395 2.67838 1.01005 2.50321 1.06576 2.33782C1.12146 2.17243 1.21099 2.02045 1.32865 1.89156C1.44631 1.76267 1.58951 1.65969 1.74915 1.58917C1.90879 1.51866 2.08136 1.48216 2.25588 1.48199H4.14147C4.4465 1.47899 4.74221 1.58701 4.97349 1.78591C5.20477 1.98481 5.35584 2.26102 5.39853 2.56307C5.47811 3.1665 5.62571 3.75899 5.8385 4.32924C5.92306 4.5542 5.94137 4.7987 5.89124 5.03374C5.84111 5.26879 5.72465 5.48455 5.55566 5.65544L4.75743 6.45367C5.65218 8.02722 6.95506 9.3301 8.52861 10.2249L9.32684 9.42662C9.49773 9.25763 9.71349 9.14117 9.94853 9.09104C10.1836 9.04091 10.4281 9.05921 10.653 9.14378C11.2233 9.35657 11.8158 9.50416 12.4192 9.58375C12.7245 9.62682 13.0034 9.78061 13.2027 10.0159C13.402 10.2511 13.5079 10.5514 13.5003 10.8597Z" stroke="#00ACED" stroke-linecap="round" stroke-linejoin="round"/>
</svg>
