<svg width="101" height="93" viewBox="0 0 101 93" fill="none" xmlns="http://www.w3.org/2000/svg">
<path d="M38.4065 48.3955H30.0333C26.5154 48.3955 23.0346 47.2243 20.2319 45.0977L9.26749 36.7779C4.16736 32.908 2.17514 26.2526 4.31025 20.2168C6.35088 14.4482 11.8334 10.5234 17.9526 10.4505C23.9318 10.3795 27.329 10.5685 27.4705 10.5766L27.0961 17.1577C27.0634 17.156 23.7582 16.9742 18.0309 17.0419C14.6639 17.0819 11.6472 19.2413 10.5245 22.4153C9.34972 25.7361 10.4458 29.3978 13.2519 31.5271L24.2162 39.8469C25.8793 41.109 27.9452 41.804 30.0329 41.804H38.4062V48.3955H38.4065Z" fill="#FFD064"/>
<path d="M20.2327 41.625L9.26822 33.3052C6.01763 30.8386 4.03221 27.2401 3.57051 23.3921C2.96242 28.4751 5.05165 33.5785 9.26822 36.778L20.2327 45.0978C23.0352 47.2244 26.5161 48.3956 30.034 48.3956H38.4073V44.9228H30.034C26.5161 44.9228 23.0352 43.7516 20.2327 41.625Z" fill="#ECBE6B"/>
<path d="M62.1542 48.3955H70.5274C74.0453 48.3955 77.5261 47.2243 80.3288 45.0977L91.2932 36.7779C96.3934 32.908 98.3856 26.2526 96.2505 20.2168C94.2098 14.4482 88.7273 10.5234 82.6081 10.4505C76.6289 10.3795 73.2318 10.5685 73.0902 10.5766L73.4647 17.1577C73.4973 17.156 76.8025 16.9742 82.5298 17.0419C85.8968 17.0819 88.9136 19.2413 90.0362 22.4153C91.211 25.7361 90.115 29.3978 87.3088 31.5271L76.3445 39.8469C74.6814 41.109 72.6155 41.804 70.5278 41.804H62.1546V48.3955H62.1542Z" fill="#FFD064"/>
<path d="M96.2507 20.2169C95.2956 17.5167 93.586 15.2206 91.4101 13.5342C92.3488 14.7441 93.1078 16.1104 93.635 17.6015C95.7701 23.6372 93.7779 30.2926 88.6778 34.1625L77.7133 42.4823C74.9108 44.6089 71.4299 45.7802 67.912 45.7802H62.1542V48.3956H70.5274C74.0453 48.3956 77.5261 47.2244 80.3288 45.0978L91.2932 36.778C96.3936 32.9081 98.3858 26.2527 96.2507 20.2169Z" fill="#ECBE6B"/>
<path d="M60.9558 72.5387L57.0565 69.5834C55.3808 68.3133 54.3963 66.3318 54.3963 64.2292V51.1113H45.5648V64.2292C45.5648 66.3318 44.5804 68.3133 42.9047 69.5834L39.0053 72.5387C37.7899 73.4597 38.4414 75.3977 39.9663 75.3977H59.9947C61.5198 75.3975 62.1712 73.4597 60.9558 72.5387Z" fill="#FFD064"/>
<path d="M60.9556 72.5387L57.0563 69.5834C55.3806 68.3133 54.3961 66.3318 54.3961 64.2292V51.1113H49.8188V64.2292C49.8188 66.3318 50.8032 68.3133 52.4789 69.5834L56.3783 72.5387C57.5937 73.4597 56.9422 75.3977 55.4173 75.3977H59.9947C61.5196 75.3975 62.171 73.4597 60.9556 72.5387Z" fill="#ECBE6B"/>
<path d="M75.0484 0.861816H25.5124C24.5633 0.861816 23.794 1.63106 23.794 2.58013V20.3183C23.794 27.913 25.9087 35.3576 29.9014 41.8182L34.4756 49.2198C41.6448 60.8203 58.4883 60.8997 65.7663 49.367L70.4557 41.9362C74.5786 35.4029 76.7667 27.8356 76.7667 20.1103V2.58013C76.7667 1.63126 75.9975 0.861816 75.0484 0.861816Z" fill="#FFE07D"/>
<path d="M75.048 0.861816H67.108V10.452C67.108 18.1774 64.9199 25.7448 60.797 32.2781L56.1076 39.7089C50.9158 47.936 40.8566 50.2519 32.9136 46.6932L34.4752 49.22C41.6443 60.8205 58.4879 60.8999 65.7659 49.3672L70.4553 41.9364C74.5781 35.4031 76.7663 27.8358 76.7663 20.1105V2.58013C76.7663 1.63126 75.9971 0.861816 75.048 0.861816Z" fill="#FFD064"/>
<path d="M50.2649 86.2783C40.8616 86.2783 31.737 83.4709 23.8774 78.1595C16.2346 72.9946 10.1438 65.7306 6.26359 57.1528C5.92241 56.3991 6.25717 55.5117 7.01087 55.1707C7.76476 54.8295 8.65201 55.1645 8.99279 55.918C16.5126 72.5413 32.7131 83.2825 50.2649 83.2825C67.8166 83.2825 84.0167 72.5413 91.5367 55.918C91.8775 55.1647 92.7649 54.8297 93.5186 55.1707C94.2723 55.5117 94.6071 56.3991 94.2659 57.1528C90.3857 65.7306 84.2949 72.9948 76.6522 78.1595C68.7925 83.4707 59.6681 86.2783 50.2649 86.2783Z" fill="#0DC183"/>
<path d="M98.1991 53.638C96.5632 57.5097 93.7741 60.0302 91.9695 59.2677C90.1648 58.5053 90.028 54.7485 91.6637 50.8768C92.8488 48.0717 96.7541 43.6125 98.8161 41.3682C99.2615 40.8833 100.068 41.2243 100.031 41.8816C99.8595 44.9246 99.3841 50.8332 98.1991 53.638Z" fill="#AAD880"/>
<path d="M98.8164 41.3687C98.2445 41.9912 97.5304 42.7845 96.7723 43.6654C96.5011 46.6504 96.0178 50.2082 95.176 52.2006C94.0236 54.928 92.2991 56.9831 90.7495 57.694C90.9812 58.4648 91.3885 59.0225 91.9698 59.2682C93.7744 60.0307 96.5635 57.5103 98.1994 53.6386C99.3844 50.8335 99.8596 44.9251 100.031 41.8821C100.069 41.2247 99.2618 40.8839 98.8164 41.3687Z" fill="#80CB8E"/>
<path d="M87.2402 62.2461C87.3631 66.2142 85.9634 69.4774 84.1138 69.5348C82.2643 69.5921 80.6651 66.4216 80.5421 62.4535C80.4531 59.5787 82.0462 54.2113 82.9309 51.4718C83.122 50.88 83.9488 50.8543 84.176 51.4333C85.2287 54.1127 87.1512 59.3713 87.2402 62.2461Z" fill="#AAD880"/>
<path d="M76.0559 70.0863C77.6195 73.7354 77.5081 77.2846 75.8071 78.0134C74.1061 78.7423 71.4597 76.3748 69.8961 72.7255C68.7633 70.0819 68.2865 64.5031 68.1096 61.6299C68.0715 61.0091 68.8318 60.6835 69.2548 61.1392C71.2132 63.2492 74.9231 67.4427 76.0559 70.0863Z" fill="#AAD880"/>
<path d="M76.0559 70.0864C74.9231 67.4427 71.2132 63.2493 69.2548 61.1393C68.8318 60.6834 68.0715 61.0092 68.1096 61.6299C68.1601 62.4513 68.2353 63.4941 68.3432 64.6257C70.1716 66.7443 72.2144 69.3407 73.0042 71.184C74.0995 73.7402 74.3716 76.2456 73.8526 77.7686C74.5594 78.1523 75.2365 78.2577 75.8071 78.0133C77.5081 77.2847 77.6195 73.7355 76.0559 70.0864Z" fill="#80CB8E"/>
<path d="M86.0273 78.5859C82.2787 77.279 79.7336 74.8029 80.3428 73.0554C80.9521 71.3081 84.485 70.951 88.2336 72.2582C90.9494 73.2051 95.3897 76.6157 97.6304 78.4232C98.1145 78.8136 97.8421 79.5947 97.2202 79.5996C94.3413 79.6223 88.7431 79.5329 86.0273 78.5859Z" fill="#AAD880"/>
<path d="M74.1205 86.7734C70.3719 85.4665 67.8268 82.9904 68.436 81.2429C69.0453 79.4956 72.5781 79.1385 76.3268 80.4457C79.0426 81.3926 83.4829 84.8032 85.7236 86.6107C86.2076 87.0011 85.9353 87.7822 85.3134 87.7871C82.4347 87.8098 76.8365 87.7204 74.1205 86.7734Z" fill="#AAD880"/>
<path d="M97.6294 78.4236C96.7189 77.6892 95.4451 76.69 94.0715 75.6989C91.0456 75.6946 86.2124 75.541 83.7495 74.6824C82.4523 74.23 81.2995 73.6377 80.3712 72.9839C80.3615 73.008 80.3502 73.0311 80.3417 73.0558C79.7324 74.8031 82.2775 77.2792 86.0262 78.5863C88.742 79.5333 94.3404 79.6227 97.2191 79.6002C97.8411 79.5953 98.1135 78.8142 97.6294 78.4236Z" fill="#80CB8E"/>
<path d="M85.7236 86.6106C84.813 85.8762 83.5393 84.877 82.1656 83.8859C79.1396 83.8816 74.3066 83.7281 71.8437 82.8694C70.5464 82.417 69.3936 81.8247 68.4656 81.1709C68.4558 81.195 68.4446 81.2183 68.436 81.2428C67.8268 82.9901 70.3719 85.4662 74.1205 86.7734C76.8363 87.7203 82.4347 87.8097 85.3134 87.787C85.9351 87.7821 86.2074 87.001 85.7236 86.6106Z" fill="#80CB8E"/>
<path d="M2.3313 53.638C3.96719 57.5097 6.75627 60.0302 8.5609 59.2677C10.3655 58.5053 10.5024 54.7485 8.86669 50.8768C7.68162 48.0717 3.77628 43.6125 1.71427 41.3682C1.26889 40.8833 0.462124 41.2243 0.499255 41.8816C0.670911 44.9246 1.14622 50.8332 2.3313 53.638Z" fill="#AAD880"/>
<path d="M8.86672 50.8767C7.68165 48.0717 3.77631 43.6125 1.7143 41.3682C1.26892 40.8833 0.462155 41.2243 0.499285 41.8816C0.547108 42.7294 0.618648 43.7996 0.722458 44.9631C2.70263 47.2615 4.9921 50.165 5.85155 52.1991C6.98433 54.8803 7.26641 57.5055 6.73375 59.1202C7.39277 59.4281 8.02107 59.4957 8.56093 59.2677C10.3658 58.5053 10.5026 54.7485 8.86672 50.8767Z" fill="#80CB8E"/>
<path d="M13.2884 62.2461C13.1655 66.2142 14.5652 69.4774 16.4147 69.5348C18.2643 69.5921 19.8634 66.4216 19.9865 62.4535C20.0755 59.5787 18.4824 54.2113 17.5977 51.4718C17.4066 50.88 16.5798 50.8543 16.3525 51.4333C15.2998 54.1127 13.3774 59.3713 13.2884 62.2461Z" fill="#AAD880"/>
<path d="M87.2408 62.2459C87.1518 59.3711 85.2294 54.1126 84.1769 51.4331C83.9494 50.8544 83.1226 50.8801 82.9315 51.4716C82.671 52.2782 82.3493 53.3132 82.027 54.4444C82.9547 57.0832 83.9068 60.2428 83.9689 62.2459C84.0534 64.9767 83.4169 67.3735 82.4088 68.6215C82.9206 69.2189 83.5037 69.5535 84.1143 69.5346C85.964 69.4775 87.3639 66.2141 87.2408 62.2459Z" fill="#80CB8E"/>
<path d="M17.5984 51.4717C17.4073 50.8799 16.5805 50.8545 16.3531 51.4332C16.0339 52.2458 15.6348 53.2962 15.2308 54.4447C16.0032 57.1564 16.7779 60.4253 16.7151 62.4536C16.6326 65.1117 15.8875 67.4099 14.849 68.6218C15.3056 69.1873 15.8387 69.517 16.4155 69.5349C18.265 69.5923 19.8642 66.4218 19.9872 62.4536C20.0763 59.5788 18.4831 54.2112 17.5984 51.4717Z" fill="#80CB8E"/>
<path d="M24.4748 70.0863C22.9112 73.7354 23.0226 77.2846 24.7236 78.0134C26.4247 78.7423 29.071 76.3748 30.6346 72.7255C31.7674 70.0819 32.2443 64.5031 32.4212 61.6299C32.4593 61.0091 31.699 60.6835 31.2759 61.1392C29.3175 63.2492 25.6076 67.4427 24.4748 70.0863Z" fill="#AAD880"/>
<path d="M31.2754 61.1393C30.6644 61.7975 29.8829 62.6587 29.0621 63.6125C28.7876 66.3712 28.3189 69.5749 27.5404 71.392C26.4947 73.8323 24.9651 75.6978 23.5575 76.449C23.7684 77.2153 24.1572 77.7709 24.7229 78.0133C26.4239 78.7421 29.0703 76.3747 30.6339 72.7254C31.7667 70.0818 32.2435 64.503 32.4204 61.6298C32.4587 61.0092 31.6984 60.6834 31.2754 61.1393Z" fill="#80CB8E"/>
<path d="M14.5025 78.5859C18.2511 77.279 20.7962 74.8029 20.187 73.0554C19.5777 71.3081 16.0448 70.951 12.2962 72.2582C9.5804 73.2051 5.14007 76.6157 2.8994 78.4232C2.41553 78.8136 2.68769 79.5947 3.30958 79.5996C6.18848 79.6223 11.7867 79.5329 14.5025 78.5859Z" fill="#AAD880"/>
<path d="M26.4081 86.7734C30.1567 85.4665 32.7018 82.9904 32.0926 81.2429C31.4833 79.4956 27.9505 79.1385 24.2018 80.4457C21.486 81.3926 17.0457 84.8032 14.805 86.6107C14.3212 87.0011 14.5933 87.7822 15.2152 87.7871C18.0939 87.8098 23.6921 87.7204 26.4081 86.7734Z" fill="#AAD880"/>
<path d="M20.187 73.0556C19.9376 72.3404 19.1979 71.8585 18.1544 71.6279C17.5789 73.1511 15.4118 74.8443 12.5327 75.848C10.7286 76.4771 7.65319 76.7275 4.9475 76.8183C4.16718 77.4116 3.46344 77.9683 2.89948 78.4234C2.41542 78.8138 2.68778 79.5949 3.30967 79.5998C6.18837 79.6223 11.7866 79.5329 14.5025 78.586C18.2512 77.2792 20.7963 74.8031 20.187 73.0556Z" fill="#80CB8E"/>
<path d="M32.0926 81.2431C31.8432 80.5279 31.1035 80.046 30.0599 79.8154C29.4845 81.3386 27.3173 83.0318 24.4382 84.0355C22.6342 84.6646 19.5587 84.915 16.8531 85.0058C16.0727 85.5991 15.369 86.1558 14.805 86.6109C14.3212 87.0013 14.5933 87.7824 15.2152 87.7873C18.0939 87.8098 23.6921 87.7204 26.4081 86.7736C30.1567 85.4665 32.7018 82.9904 32.0926 81.2431Z" fill="#80CB8E"/>
<path d="M49.8176 37.151C56.008 37.151 61.0264 32.1327 61.0264 25.9422C61.0264 19.7518 56.008 14.7334 49.8176 14.7334C43.6271 14.7334 38.6088 19.7518 38.6088 25.9422C38.6088 32.1327 43.6271 37.151 49.8176 37.151Z" fill="#ECBE6B"/>
<path d="M53.9917 15.5396C54.5098 16.8298 54.7977 18.2373 54.7977 19.7128C54.7977 25.9033 49.7794 30.9216 43.5889 30.9216C42.1134 30.9216 40.7059 30.6337 39.4156 30.1156C41.0712 34.2387 45.1035 37.1514 49.8185 37.1514C56.009 37.1514 61.0273 32.1331 61.0273 25.9426C61.0275 21.2274 58.1148 17.1953 53.9917 15.5396Z" fill="#EAB14D"/>
<path d="M50.6374 20.9574L51.811 23.3351C51.9177 23.5511 52.1238 23.701 52.3623 23.7356L54.9863 24.1168C55.5869 24.2041 55.8266 24.9421 55.3921 25.3657L53.4933 27.2166C53.3207 27.3847 53.242 27.6271 53.2828 27.8645L53.7311 30.478C53.8337 31.076 53.206 31.5321 52.6689 31.2498L50.3219 30.0159C50.1086 29.9038 49.8538 29.9038 49.6405 30.0159L47.2935 31.2498C46.7564 31.5321 46.1286 31.076 46.2313 30.478L46.6796 27.8645C46.7204 27.6269 46.6417 27.3847 46.469 27.2166L44.5703 25.3657C44.1358 24.9421 44.3755 24.2041 44.976 24.1168L47.6001 23.7356C47.8386 23.701 48.0447 23.5511 48.1514 23.3351L49.325 20.9574C49.5929 20.4133 50.3689 20.4133 50.6374 20.9574Z" fill="#FFE07D"/>
<path d="M55.3912 25.3659C55.8257 24.9423 55.586 24.2043 54.9855 24.117L54.0289 23.978L51.4789 26.4636C51.2233 26.7127 51.1068 27.0715 51.1671 27.4232L51.7398 30.7619L52.6681 31.2498C53.2052 31.5321 53.8329 31.076 53.7303 30.478L53.282 27.8645C53.2412 27.6269 53.3199 27.3847 53.4925 27.2166L55.3912 25.3659Z" fill="#FFD064"/>
<path d="M64.8236 92.476H35.7378C34.8189 92.476 34.0742 91.7311 34.0742 90.8123V77.0612C34.0742 76.1422 34.8191 75.3975 35.7378 75.3975H64.8236C65.7426 75.3975 66.4873 76.1424 66.4873 77.0612V90.8123C66.4875 91.7311 65.7426 92.476 64.8236 92.476Z" fill="#407093"/>
<path d="M64.8281 75.3975H61.6771V86.0065C61.6771 86.923 60.9342 87.6658 60.0178 87.6658H34.0742V90.8168C34.0742 91.7332 34.817 92.476 35.7334 92.476H64.8281C65.7445 92.476 66.4873 91.7332 66.4873 90.8168V77.0567C66.4875 76.1403 65.7445 75.3975 64.8281 75.3975Z" fill="#365E7D"/>
</svg>
