<svg width="80" height="55" viewBox="0 0 80 55" fill="none" xmlns="http://www.w3.org/2000/svg">
<path d="M18.5209 21.8436V23.1104C22.7434 23.5327 26.4382 25.2217 29.6051 28.1775C32.772 30.9221 34.3555 34.4058 34.3555 38.6283C34.3555 42.6398 32.8776 46.2289 29.9218 49.3958C26.966 52.5628 22.9546 54.1462 17.8875 54.1462C13.0316 54.1462 8.91456 51.9294 5.53651 47.4957C2.36959 43.062 0.786133 37.5727 0.786133 31.0277C0.786133 24.4828 3.63636 17.7267 9.33681 10.7594C15.2484 3.79221 21.16 0.308594 27.0716 0.308594C28.9717 0.308594 29.9218 0.625288 29.9218 1.25868C29.9218 1.89206 29.4995 2.20876 28.655 2.20876C27.8105 2.20876 26.227 3.79222 23.9046 6.95914C20.3155 11.604 18.5209 16.5655 18.5209 21.8436ZM63.8078 21.8436V23.1104C68.0304 23.5327 71.7251 25.2217 74.892 28.1775C78.0589 30.9221 79.6424 34.4058 79.6424 38.6283C79.6424 42.6398 78.1645 46.2289 75.2087 49.3958C72.4641 52.5628 68.5582 54.1462 63.4911 54.1462C58.6352 54.1462 54.5182 51.9294 51.1401 47.4957C47.7621 43.062 46.0731 37.5727 46.0731 31.0277C46.0731 24.4828 49.0289 17.7267 54.9404 10.7594C60.852 3.79221 66.7636 0.308594 72.6752 0.308594C74.3642 0.308594 75.2087 0.625288 75.2087 1.25868C75.2087 1.89206 74.9976 2.20876 74.5753 2.20876C73.3086 2.20876 71.514 3.79222 69.1916 6.95914C65.6024 11.8151 63.8078 16.7766 63.8078 21.8436Z" fill="#EEF3FF"/>
</svg>
