<svg width="80" height="55" viewBox="0 0 80 55" fill="none" xmlns="http://www.w3.org/2000/svg">
<path d="M61.4791 33.1622V31.8954C57.2566 31.4732 53.5618 29.7842 50.3949 26.8284C47.228 24.0837 45.6445 20.6001 45.6445 16.3775C45.6445 12.3661 47.1224 8.77694 50.0782 5.61002C53.034 2.4431 57.0454 0.859642 62.1125 0.859642C66.9684 0.859642 71.0854 3.07648 74.4635 7.51017C77.6304 11.9439 79.2139 17.4332 79.2139 23.9782C79.2139 30.5231 76.3636 37.2792 70.6632 44.2464C64.7516 51.2136 58.84 54.6973 52.9284 54.6973C51.0283 54.6973 50.0782 54.3806 50.0782 53.7472C50.0782 53.1138 50.5005 52.7971 51.345 52.7971C52.1895 52.7971 53.773 51.2136 56.0954 48.0467C59.6845 43.4019 61.4791 38.4404 61.4791 33.1622ZM16.1922 33.1622V31.8954C11.9696 31.4732 8.27489 29.7842 5.10797 26.8284C1.94106 24.0837 0.357605 20.6001 0.357605 16.3775C0.357605 12.3661 1.83549 8.77694 4.79128 5.61002C7.53594 2.4431 11.4418 0.859642 16.5089 0.859642C21.3648 0.859642 25.4818 3.07648 28.8599 7.51017C32.2379 11.9439 33.9269 17.4332 33.9269 23.9782C33.9269 30.5231 30.9711 37.2792 25.0596 44.2464C19.148 51.2136 13.2364 54.6973 7.32481 54.6973C5.63579 54.6973 4.79128 54.3806 4.79128 53.7472C4.79128 53.1138 5.00241 52.7971 5.42467 52.7971C6.69143 52.7971 8.48602 51.2136 10.8084 48.0467C14.3976 43.1908 16.1922 38.2293 16.1922 33.1622Z" fill="#EEF3FF"/>
</svg>
