<svg width="70" height="89" viewBox="0 0 70 89" fill="none" xmlns="http://www.w3.org/2000/svg">
<path d="M18.1439 78.6676L30.4066 49.0635L20.5591 44.9844L6.43059 79.0925C5.83539 80.5295 7.18203 82.0104 8.66892 81.5542L16.6802 79.0957C16.9179 79.0228 17.1467 79.0007 17.3821 79.0235L18.1439 78.6676Z" fill="#FFC3BC"/>
<path d="M29.8822 48.8457L17.382 79.023C17.987 79.077 18.5453 79.4281 18.8442 79.9917L22.7705 87.395C23.4992 88.7692 25.4987 88.6741 26.094 87.2372L40.2225 53.129L29.8822 48.8457Z" fill="#FF7260"/>
<path d="M40.5893 48.7314L29.974 53.1287L44.1025 87.237C44.6977 88.674 46.6971 88.7689 47.426 87.3947L51.3523 79.9914C51.4732 79.7635 51.6366 79.57 51.8282 79.4168L52.7895 78.2018L40.5893 48.7314Z" fill="#FFC3BC"/>
<path d="M63.7657 79.0916L49.6373 44.9834L39.3332 49.2516L51.8288 79.4177C52.292 79.0476 52.9199 78.9119 53.5161 79.0947L61.5274 81.5532C63.0145 82.0097 64.3611 80.5287 63.7657 79.0916Z" fill="#FF7260"/>
<path d="M38.6459 1.60854C40.1235 2.7809 42.0849 3.14751 43.8863 2.58823C46.4194 1.80155 49.1605 2.86357 50.5025 5.1514C51.4569 6.77837 53.1533 7.82887 55.0352 7.95795C57.6814 8.13945 59.8537 10.12 60.2787 12.7381C60.5809 14.6001 61.7835 16.1923 63.4916 16.9926C65.8935 18.1178 67.2037 20.7492 66.6543 23.344C66.2634 25.1893 66.8095 27.1086 68.1131 28.4717C69.9464 30.3887 70.2176 33.3157 68.7678 35.5368C67.7367 37.1164 67.5527 39.1032 68.2759 40.8454C69.2929 43.2951 68.4883 46.1225 66.3342 47.6698C64.8023 48.7702 63.9129 50.5565 63.9579 52.4421C64.0213 55.0938 62.2498 57.4396 59.682 58.1044C57.856 58.577 56.3813 59.9214 55.7421 61.696C54.8434 64.1915 52.3439 65.7391 49.7094 65.4312C47.836 65.2124 45.9753 65.9331 44.7381 67.3571C42.9986 69.3594 40.109 69.8995 37.7636 68.6609C36.0957 67.7801 34.1003 67.7801 32.4324 68.6609C30.087 69.8996 27.1974 69.3594 25.4579 67.3571C24.2207 65.9331 22.3602 65.2124 20.4866 65.4312C17.8521 65.7391 15.3528 64.1915 14.4539 61.696C13.8147 59.9214 12.3402 58.577 10.514 58.1044C7.94622 57.4397 6.17471 55.0938 6.23813 52.4421C6.28316 50.5565 5.39371 48.7702 3.86179 47.6698C1.70751 46.1225 0.90313 43.2951 1.92011 40.8454C2.64336 39.1032 2.45929 37.1164 1.42821 35.5368C-0.0215572 33.3157 0.249661 30.3887 2.08288 28.4717C3.38655 27.1086 3.9326 25.1893 3.54193 23.344C2.99244 20.7492 4.30265 18.1176 6.7046 16.9926C8.41269 16.1923 9.61513 14.6001 9.91746 12.7381C10.3423 10.12 12.5148 8.13962 15.161 7.95795C17.0429 7.82887 18.7393 6.77837 19.6937 5.1514C21.0357 2.86357 23.7769 1.80173 26.3099 2.58823C28.1113 3.14768 30.0727 2.7809 31.5503 1.60854C33.6283 -0.0400859 36.5681 -0.0400859 38.6459 1.60854Z" fill="#DC4D41"/>
<path d="M50.6714 34.8468C50.6714 23.21 43.1642 13.3272 32.729 9.77539C19.9327 10.9696 9.9169 21.7384 9.9169 34.8468C9.9169 47.9552 19.9327 58.724 32.729 59.9182C43.1644 56.3664 50.6714 46.4838 50.6714 34.8468Z" fill="#FFC3BC"/>
<path d="M35.0986 9.66553C33.1708 9.66553 31.294 9.88295 29.4903 10.2932C40.6979 12.8425 49.0634 22.8674 49.0634 34.8469C49.0634 46.8265 40.6979 56.8514 29.4903 59.4007C31.294 59.8109 33.1708 60.0283 35.0986 60.0283C49.0058 60.0283 60.28 48.7542 60.28 34.8469C60.28 20.9397 49.0058 9.66553 35.0986 9.66553Z" fill="#FF7260"/>
<path d="M35.7919 44.5118L44.4831 50.3621C44.8248 50.5921 45.2024 50.626 45.5329 50.5242C45.8401 50.1067 46.1354 49.68 46.4183 49.2444C46.4116 49.1614 46.3963 49.0765 46.3717 48.9902L43.4935 38.9166C43.3546 38.4304 43.5241 37.9086 43.9223 37.597L50.5598 32.401C50.4496 31.1979 50.2588 30.018 49.9931 28.8668L40.9807 28.5435C40.4753 28.5254 40.0314 28.2028 39.8581 27.7279L36.2653 17.8862C35.8679 16.7977 34.3284 16.7977 33.931 17.8862L30.3383 27.7276C30.1649 28.2025 29.7211 28.5251 29.2158 28.5431L18.7459 28.9187C17.5878 28.9603 17.1122 30.4243 18.0245 31.1386L26.2742 37.5966C26.6722 37.9082 26.8419 38.4301 26.703 38.9163L23.8248 48.9899C23.5065 50.1041 24.7519 51.0089 25.7132 50.362L34.4044 44.5117C34.8239 44.2296 35.3725 44.2296 35.7919 44.5118Z" fill="#DC4D41"/>
<path d="M44.4834 50.3622C45.4447 51.0093 46.6901 50.1044 46.3718 48.9901L45.85 47.1636C45.2898 48.1603 44.6632 49.1145 43.9772 50.0215L44.4834 50.3622Z" fill="#DC4D41"/>
<path d="M51.4512 28.919L48.334 28.8071C48.7146 30.3526 48.9518 31.9542 49.0322 33.5973L52.1725 31.139C53.0849 30.4248 52.6091 28.9606 51.4512 28.919Z" fill="#DC4D41"/>
</svg>
