<svg width="127" height="99" viewBox="0 0 127 99" fill="none" xmlns="http://www.w3.org/2000/svg">
<path d="M21.8008 25.6821C1.55621 25.6821 3.80095 50.3009 3.89338 68.1413C3.89683 68.8152 4.24975 69.4224 4.82696 69.7704C7.07023 71.1228 13.2312 74.2846 21.8008 74.2846C30.3705 74.2846 36.5314 71.1228 38.7747 69.7704C39.3517 69.4224 39.7048 68.8152 39.7083 68.1413C39.8007 50.3009 42.0455 25.6821 21.8008 25.6821Z" fill="#294B64"/>
<path d="M20.4968 25.7329C1.66854 26.7885 3.80336 50.698 3.89357 68.1414C3.89702 68.8152 4.24995 69.4227 4.82715 69.7705C7.07042 71.1228 13.2314 74.2846 21.801 74.2846L26.9173 38.4721" fill="#365E7D"/>
<path d="M21.8009 25.6821C10.2898 25.6821 9.49054 39.5913 9.49054 39.5913C16.1255 38.4721 20.2024 41.2699 26.9172 38.4721L21.8009 74.2846C30.3708 74.2846 36.5315 71.1228 38.7748 69.7704C39.3518 69.4224 39.7049 68.8152 39.7084 68.1413C39.8008 50.3009 42.0456 25.6821 21.8009 25.6821Z" fill="#294B64"/>
<path d="M39.7081 68.1414C39.7875 52.8115 41.4425 32.4909 29.0653 27.0718C28.8494 28.1932 28.4583 31.3239 29.4747 33.356C32.0326 38.4722 34.5909 38.4722 37.1486 42.3091C39.7066 56.3782 32.2611 71.3109 29.7881 73.344C34.1697 72.3019 37.3106 70.6529 38.7745 69.7705C39.3515 69.4228 39.7047 68.8153 39.7081 68.1414Z" fill="#477B9E"/>
<path d="M41.1829 72.0216L29.7701 67.2664C28.817 66.8693 28.196 65.938 28.196 64.9051V61.8142H15.406V64.9051C15.406 65.938 14.7849 66.8693 13.8318 67.2664L2.41906 72.0216C0.989108 72.6175 0.0577393 74.0147 0.0577393 75.5637V80.6799C0.0577393 82.0926 1.20303 83.2379 2.61574 83.2379H40.986C42.3987 83.2379 43.5439 82.0926 43.5439 80.6799V75.5637C43.5442 74.0147 42.6128 72.6175 41.1829 72.0216Z" fill="#E6AF78"/>
<path d="M41.1829 72.0215L30.1482 67.4236L21.8008 71.0263L13.4535 67.4238L2.41906 72.0218C0.989108 72.6175 0.0577393 74.0146 0.0577393 75.5636V80.6799C0.0577393 82.0926 1.20303 83.2379 2.61574 83.2379H40.986C42.3987 83.2379 43.5439 82.0926 43.5439 80.6799V75.5636C43.5442 74.0146 42.6128 72.6175 41.1829 72.0215Z" fill="#EFF2FA"/>
<path d="M28.1958 61.8142H15.4058V64.9051C15.4058 65.938 14.7847 66.8693 13.8316 67.2664L12.0493 68.0092C25.6895 71.4872 28.1958 61.8142 28.1958 61.8142Z" fill="#D29B6E"/>
<path d="M6.29155 76.9696L1.15781 72.886C0.469943 73.5894 0.0576172 74.5407 0.0576172 75.5638V80.68C0.0576172 82.0927 1.20291 83.238 2.61561 83.238H7.73186V79.966C7.73161 78.8003 7.20197 77.6979 6.29155 76.9696Z" fill="#E4EAF6"/>
<path d="M43.544 80.6799V75.5636C43.544 74.5484 43.1386 73.6038 42.4603 72.9019L37.3098 76.9694C36.3996 77.6975 35.8698 78.7999 35.8698 79.9656V83.2374H40.986C42.3987 83.2379 43.544 82.0926 43.544 80.6799Z" fill="#E4EAF6"/>
<path d="M21.9927 80.6796H21.609C21.0086 80.6796 20.5219 80.1929 20.5219 79.5925V71.0293H23.0798V79.5923C23.0798 80.1929 22.5931 80.6796 21.9927 80.6796Z" fill="#E4EAF6"/>
<path d="M21.8005 71.0267L14.4802 65.5365C14.0102 65.1841 13.3408 65.2987 13.015 65.7874L11.5685 67.957L16.0566 74.2402C16.3977 74.7179 17.07 74.8113 17.5284 74.4446L21.8005 71.0267Z" fill="#E4EAF6"/>
<path d="M21.8007 71.0267L29.121 65.5365C29.591 65.1841 30.2604 65.2987 30.5862 65.7874L32.0327 67.957L27.5446 74.2402C27.2035 74.7179 26.5312 74.8113 26.0728 74.4446L21.8007 71.0267Z" fill="#E4EAF6"/>
<path d="M28.1961 37.1936C21.801 43.5885 9.25079 38.4722 9.25079 48.7042L10.0449 56.2412C10.1982 57.9272 11.1756 59.4281 12.6551 60.2503L19.9375 64.296C21.0964 64.9397 22.5054 64.9397 23.6642 64.296L30.9466 60.2503C32.4266 59.4281 33.4038 57.927 33.5568 56.2412L34.4737 47.2898C34.539 46.6534 34.5528 46.0134 34.5313 45.3751C34.0532 42.1193 29.475 39.7514 28.1961 37.1936Z" fill="#F0C087"/>
<path d="M9.25079 48.704L10.0449 56.2409C10.1982 57.927 11.1756 59.4279 12.6551 60.2501L19.9375 64.2957C20.7417 64.7426 21.6639 64.8581 22.5418 64.6849C22.5418 64.6849 18.8703 63.5721 16.685 57.6569C16.0156 55.8449 15.0862 46.2522 15.8857 45.0798C17.466 42.7626 26.2777 42.5218 28.8812 38.2228C28.7526 38.0634 28.6338 37.9034 28.5254 37.7435C28.5167 37.7306 28.5061 37.7176 28.4973 37.7045C28.3841 37.5345 28.2816 37.3639 28.1958 37.1926C21.801 43.5882 9.25079 38.472 9.25079 48.704Z" fill="#E6AF78"/>
<path d="M31.1375 80.6797H27.812C26.6113 80.6797 25.6378 81.6532 25.6378 82.854V83.2377H33.3117V82.854C33.3117 81.653 32.3382 80.6797 31.1375 80.6797Z" fill="#E4EAF6"/>
<path d="M109.185 66.0749V59.0503H91.1213V66.0749L100.153 74.1033L109.185 66.0749Z" fill="#E6AF78"/>
<path d="M123.15 69.3607L110.732 66.439C110.544 66.3949 110.372 66.3199 110.211 66.2292L100.153 72.0964L90.4869 65.9456C90.2365 66.1812 89.9262 66.3562 89.5735 66.4392L77.1557 69.361C75.3423 69.7876 74.0609 71.4056 74.0609 73.2686V81.1282C74.0609 82.2365 74.9595 83.1353 76.0681 83.1353H124.238C125.346 83.1353 126.245 82.2367 126.245 81.1282V73.2686C126.244 71.4054 124.963 69.7874 123.15 69.3607Z" fill="#EFF2FA"/>
<path d="M91.1213 59.0503V66.4621C102.499 70.5612 109.185 60.3018 109.185 60.3018V59.0503H91.1213Z" fill="#D29B6E"/>
<path d="M87.1073 35.9688L87.982 55.2081C88.0638 57.0055 88.9449 58.6721 90.3842 59.7516L94.5336 62.8636C95.5759 63.6454 96.8437 64.0678 98.1462 64.0678H102.16C103.463 64.0678 104.731 63.6451 105.773 62.8636L109.922 59.7516C111.362 58.6721 112.243 57.0053 112.324 55.2081L113.199 35.9688H87.1073Z" fill="#F0C087"/>
<path d="M97.1426 39.9828C101.157 39.9828 107.178 38.9795 108.606 35.9688H87.1073L87.9817 55.2081C88.0636 57.0055 88.9446 58.6721 90.384 59.7516L94.5334 62.8636C95.5756 63.6454 96.8434 64.0678 98.146 64.0678H100.153C98.1459 64.0678 94.1319 60.0537 94.1319 55.0358C94.1319 52.5818 94.1319 46.0041 94.1319 42.9933C94.1319 41.99 95.1355 39.9828 97.1426 39.9828Z" fill="#E6AF78"/>
<path d="M118.877 76.6221L125.38 70.7805C125.925 71.4706 126.245 72.3386 126.245 73.2683V81.1279C126.245 82.2362 125.346 83.135 124.238 83.135H117.213V80.355C117.213 78.9309 117.818 77.5739 118.877 76.6221Z" fill="#E4EAF6"/>
<path d="M102.662 83.135H97.644L98.2715 74.1033H102.035L102.662 83.135Z" fill="#5B5D6E"/>
<path d="M102.662 72.0959H97.644V72.6756C97.644 74.0183 98.7323 75.1065 100.075 75.1065H100.231C101.573 75.1065 102.661 74.0181 102.661 72.6756V72.0959H102.662Z" fill="#515262"/>
<path d="M90.9796 63.8412L100.152 72.0966C100.152 72.0966 97.5835 73.3932 94.4133 76.0071C93.7594 76.5464 92.7702 76.3278 92.4195 75.5564L88.1099 66.0756L89.4733 64.0307C89.8129 63.5213 90.5249 63.4318 90.9796 63.8412Z" fill="#E4EAF6"/>
<path d="M109.326 63.8409L100.153 72.0963C100.153 72.0963 102.722 73.393 105.892 76.0069C106.546 76.5462 107.535 76.3275 107.886 75.5561L112.195 66.0753L110.832 64.0305C110.493 63.521 109.781 63.4316 109.326 63.8409Z" fill="#E4EAF6"/>
<path d="M106.237 29.3204L107.178 35.9689C111.472 36.8278 112.091 43.5672 112.18 45.4923C112.197 45.8416 112.308 46.1792 112.497 46.473L114.136 49.0147C114.136 49.0147 113.575 44.8123 116.143 41.9901C116.143 41.9901 117.025 25.3064 106.237 29.3204Z" fill="#477B9E"/>
<path d="M115.143 48.5856L114.009 53.1187C113.875 53.6557 113.392 54.0325 112.839 54.0325C112.23 54.0325 111.717 53.5796 111.641 52.9757L111.062 48.3393C110.907 47.0994 111.874 46.0044 113.123 46.0044H113.127C114.479 46.0041 115.47 47.2744 115.143 48.5856Z" fill="#F0C087"/>
<path d="M88.0685 27.5226L89.5529 28.5365C82.8418 33.4916 84.096 41.9902 84.096 41.9902C86.1032 43.9974 86.1032 49.0148 86.1032 49.0148L88.1103 47.0076C88.1103 47.0076 87.3357 41.2097 91.1211 38.9795C94.6334 36.9097 97.7067 37.9761 100.843 37.9761C109.247 37.9761 111.599 34.8086 111.192 30.9516C110.981 28.9555 107.929 24.7982 100.153 24.9303C97.0144 24.9836 91.1211 25.9339 88.0685 27.5226Z" fill="#294B64"/>
<path d="M87.4831 37.0979C87.4831 37.0979 86.4169 32.8955 89.5529 28.5364C82.8418 33.4914 84.096 41.9901 84.096 41.9901C86.1032 43.9972 86.1032 49.0147 86.1032 49.0147L88.1103 47.0075C88.1103 47.0075 87.3357 41.2095 91.1208 38.9793C94.6331 36.9096 97.7065 37.976 100.842 37.976C102.209 37.976 103.4 37.8843 104.461 37.7276C97.9889 37.9447 94.1735 33.0421 87.4831 37.0979Z" fill="#365E7D"/>
<path d="M85.1625 48.5856L86.296 53.1187C86.4303 53.6557 86.9128 54.0325 87.4666 54.0325C88.0751 54.0325 88.5883 53.5796 88.6639 52.9757L89.2434 48.3393C89.3984 47.0994 88.4315 46.0044 87.182 46.0044H87.1778C85.8267 46.0041 84.8347 47.2744 85.1625 48.5856Z" fill="#E6AF78"/>
<path d="M112.195 81.1279H107.177C106.069 81.1279 105.17 82.0265 105.17 83.1351H114.202C114.202 82.0265 113.304 81.1279 112.195 81.1279Z" fill="#E4EAF6"/>
<path d="M63.1892 0.510742C28.7732 0.510742 32.5894 42.3629 32.7466 72.6914C32.7525 73.8367 33.3524 74.8696 34.3335 75.4609C38.1473 77.7599 48.6208 83.1349 63.1892 83.1349C77.7576 83.1349 88.2312 77.7599 92.0449 75.4609C93.0258 74.8694 93.6259 73.8367 93.6318 72.6914C93.7891 42.3627 97.6052 0.510742 63.1892 0.510742Z" fill="#294B64"/>
<path d="M60.972 0.596924C28.9641 2.39139 32.5932 43.0376 32.747 72.6913C32.7529 73.8366 33.3528 74.8696 34.334 75.4608C38.1477 77.7598 48.6212 83.1348 63.1896 83.1348L71.8869 22.2538" fill="#365E7D"/>
<path d="M63.1896 0.510742C43.6207 0.510742 42.2617 24.1565 42.2617 24.1565C53.5409 22.2541 60.4716 27.0103 71.8869 22.2541L63.1896 83.1351C77.758 83.1351 88.2315 77.7601 92.0452 75.4611C93.0261 74.8696 93.6263 73.837 93.6322 72.6917C93.7894 42.3627 97.6056 0.510742 63.1896 0.510742Z" fill="#294B64"/>
<path d="M93.6322 72.6917C93.7673 46.6306 96.5803 12.0859 75.5397 2.87329C75.1727 4.7799 74.5082 10.1022 76.2354 13.5568C80.5842 22.2541 84.9327 22.2541 89.2812 28.7771C93.6297 52.6947 80.9721 78.0805 76.7682 81.5361C84.2167 79.7646 89.5563 76.9613 92.045 75.4611C93.0262 74.8696 93.6263 73.837 93.6322 72.6917Z" fill="#477B9E"/>
<path d="M96.139 79.2882L76.7373 71.2041C75.1168 70.5291 74.0612 68.9456 74.0612 67.1898V61.9353H52.3181V67.1898C52.3181 68.9453 51.2625 70.5288 49.642 71.2041L30.2403 79.2882C27.8097 80.3009 26.2262 82.6761 26.2262 85.3095V94.0068C26.2262 96.4083 28.1733 98.3555 30.5747 98.3555H95.8043C98.2058 98.3555 100.153 96.4085 100.153 94.0068V85.3095C100.153 82.6758 98.5696 80.3009 96.139 79.2882Z" fill="#E6AF78"/>
<path d="M96.139 79.2881L77.38 71.4719L63.1897 77.5962L48.9993 71.4719L30.2403 79.2881C27.8097 80.3008 26.2262 82.6759 26.2262 85.3094V94.0067C26.2262 96.4081 28.1733 98.3554 30.5747 98.3554H95.8043C98.2058 98.3554 100.153 96.4084 100.153 94.0067V85.3094C100.153 82.6757 98.5696 80.3008 96.139 79.2881Z" fill="#B4E1FA"/>
<path d="M74.0608 61.9353H52.3177V67.1898C52.3177 68.9453 51.2621 70.5288 49.6417 71.2041L46.6115 72.467C69.8 78.3793 74.0608 61.9353 74.0608 61.9353Z" fill="#D29B6E"/>
<path d="M36.8242 87.6993L28.0969 80.7573C26.9277 81.9531 26.2267 83.5702 26.2267 85.3092V94.0065C26.2267 96.408 28.1738 98.355 30.5753 98.355H39.2726V92.7929C39.2721 90.8114 38.3715 88.9373 36.8242 87.6993Z" fill="#A0D2F0"/>
<path d="M100.153 94.0064V85.3092C100.153 83.5835 99.4634 81.9775 98.3105 80.7844L89.5548 87.6993C88.0075 88.9373 87.1067 90.8114 87.1067 92.7929V98.355H95.804C98.2058 98.3552 100.153 96.4082 100.153 94.0064Z" fill="#A0D2F0"/>
<path d="M63.1899 94.0064C61.9891 94.0064 61.0156 93.0329 61.0156 91.8321V77.6011H65.3641V91.8324C65.3641 93.0331 64.3906 94.0064 63.1899 94.0064Z" fill="#A0D2F0"/>
<path d="M63.1898 77.5963L50.7451 68.2626C49.9463 67.6635 48.8079 67.8584 48.2541 68.6892L45.7952 72.3777L53.4248 83.059C54.0047 83.8711 55.1478 84.0296 55.9269 83.4063L63.1898 77.5963Z" fill="#A0D2F0"/>
<path d="M63.1896 77.5963L75.6343 68.2626C76.4331 67.6635 77.5715 67.8584 78.1253 68.6892L80.5842 72.3777L72.9546 83.059C72.3747 83.8711 71.2316 84.0296 70.4525 83.4063L63.1896 77.5963Z" fill="#A0D2F0"/>
<path d="M74.0612 20.0796C63.1896 30.9511 41.8542 22.2539 41.8542 39.6484L43.2045 52.4616C43.4648 55.3277 45.1267 57.8795 47.6423 59.2769L60.0222 66.1546C61.9923 67.2491 64.3877 67.2491 66.3579 66.1546L78.7378 59.2769C81.2534 57.879 82.915 55.3274 83.1755 52.4616L84.7341 37.244C84.845 36.1625 84.8687 35.0744 84.8319 33.9887C84.0179 28.454 76.2355 24.4281 74.0612 20.0796Z" fill="#F0C087"/>
<path d="M41.8542 39.6484L43.2045 52.4616C43.4648 55.3277 45.1267 57.8795 47.6423 59.2769L60.0222 66.1546C61.3893 66.9139 62.957 67.1109 64.4493 66.8163C64.4493 66.8163 58.2075 64.925 54.4928 54.8688C53.3549 51.788 51.7749 35.4811 53.1339 33.4879C55.82 29.5483 70.8003 29.1392 75.2267 21.8309C75.0078 21.5596 74.806 21.288 74.6217 21.0156C74.6066 20.9937 74.5889 20.9715 74.5741 20.9496C74.3818 20.6607 74.2074 20.3709 74.0617 20.0796C63.1896 30.9511 41.8542 22.2539 41.8542 39.6484Z" fill="#E6AF78"/>
<path d="M80.5839 94.0063H71.8866C70.6858 94.0063 69.7123 94.9799 69.7123 96.1806V98.3549H82.7581V96.1806C82.7581 94.9799 81.7846 94.0063 80.5839 94.0063Z" fill="#A0D2F0"/>
</svg>
