<svg width="170" height="93" viewBox="0 0 170 93" fill="none" xmlns="http://www.w3.org/2000/svg">
<path d="M169.209 40.0735C169.209 40.0592 169.286 35.3137 169.078 34.7562C168.547 33.5637 166.789 34.2294 165.554 34.1396C164.159 34.0681 163.503 32.6469 162.378 32.0772C161.562 31.532 160.126 31.7015 157.589 31.3441C156.456 31.0766 155.265 30.2721 154.016 30.3599C153.08 30.4171 152.207 30.9214 150.868 30.6662C150.386 30.4783 149.947 30.0761 149.462 29.8698C148.889 29.6146 148.305 29.6085 147.979 28.953C147.377 27.8279 147.416 27.6278 145.906 27.395C143.387 27.1397 141.177 28.7529 138.766 28.3465C136.895 28.028 135.863 26.8089 134.048 27.4093C133.224 27.7686 131.643 28.6467 129.112 26.3434C129.112 26.3291 129.155 23.8767 129.037 23.65C128.636 22.8659 126.209 22.4636 126.083 20.3175C126.083 19.8928 125.643 19.7233 125.226 19.5743C124.194 19.6131 123.379 20.3094 119.503 19.4824C117.521 19.0658 118.644 19.4252 118.913 18.829C118.972 18.6901 118.955 13.8139 118.937 13.7445C118.687 12.8031 116.072 12.4642 115.732 11.3533C115.759 7.9208 113.673 9.56867 110.86 9.0255C106.121 8.14134 108.314 10.0567 105.653 9.64626C105.146 9.54416 103.502 9.06839 103.217 9.06839C100.326 8.6069 99.254 10.7938 98.0109 11.1063C97.0973 11.3635 96.017 10.9061 95.1889 10.5917C93.9376 11.8945 90.8063 10.0914 87.561 12.4499C85.8703 13.6995 85.9903 14.9104 86.0147 16.4011C85.9272 18.441 86.3972 18.198 85.0422 18.198C83.7583 18.0101 83.4308 16.789 81.1744 16.1213C78.2119 15.2902 77.2374 17.1484 75.2475 16.8483C74.0674 16.6481 73.4102 15.57 72.9321 15.2514C71.0663 13.8547 70.0958 15.764 68.6146 15.5577C68.342 15.5087 66.1303 14.4102 66.1161 14.404C63.2351 14.0344 61.2879 16.348 56.4394 14.4081C52.244 12.601 52.5187 11.9006 42.4656 10.2895C40.1115 9.9158 29.1449 8.40271 27.6311 10.5611C27.4155 10.7755 27.4745 12.0251 26.5385 12.1334C25.6128 12.3151 24.6728 11.9088 23.8203 11.5984C23.3055 11.4105 22.1967 10.7162 21.7368 11.1328C21.3787 11.4575 21.2343 12.1293 21.1529 12.5867C20.9677 13.6097 21.1387 14.6368 21.1122 15.6639C20.9881 20.3318 21.9118 18.151 23.6494 22.9537C22.2129 24.6526 18.7459 24.1074 17.6249 25.5225C15.8771 27.738 7.76099 28.7855 7.93393 33.9578C7.8261 37.5047 8.1496 37.1617 7.65926 37.0739C4.64394 36.5389 5.30723 36.206 1.40482 40.9597C0.875817 41.5988 0.702874 41.9419 0.798501 43.214C0.794432 43.2753 0.796466 46.8773 0.798501 46.9059C0.761878 47.3572 1.03859 47.7063 1.39058 47.9943C1.42313 48.0208 1.72222 48.2822 1.72629 48.3598C1.55538 50.7448 2.72529 49.5359 4.86979 50.6774C5.84234 51.2001 6.45883 51.7903 7.91969 52.1333C9.17099 52.264 10.7885 51.6596 11.8058 51.7065C14.7052 51.7065 17.2037 53.7097 20.1295 53.8608C22.0461 53.9506 23.3381 53.4218 24.8335 54.1365C25.098 54.1365 25.7552 55.3024 26.1337 55.5618C27.1449 56.2744 28.8173 56.5031 30.3189 55.8578C30.3575 55.8966 31.0391 55.4249 31.1755 55.3433C32.2579 54.698 33.3057 54.9451 34.7035 55.0758C40.8623 55.6639 41.5989 52.5601 45.7332 52.2762C50.0812 52.0659 47.7353 49.2256 55.1454 50.3895C60.1587 51.0388 58.765 53.0522 65.2005 54.0466C65.9492 54.1977 66.7346 54.3407 67.3999 54.7838C67.8496 55.0819 68.1731 55.5413 68.6004 55.8701C69.1314 56.2785 69.9819 56.2621 70.0856 57.0626C70.1752 57.7609 70.0734 58.4981 70.0958 59.2005C69.9758 63.1619 72.7754 61.8632 73.6625 63.4723C73.6686 63.4866 73.6564 64.4096 73.6646 64.5423C73.5506 66.7905 75.3329 66.035 76.7409 67.6849C74.9321 68.7406 73.6829 67.1785 73.1945 66.9355C71.1925 65.8104 70.9382 67.2111 69.343 67.2111C68.8221 67.1254 67.756 66.1759 67.5932 66.3433C67.4711 66.2167 66.1873 66.4066 66.3216 67.4419C66.2911 67.691 66.3867 70.8438 66.2341 70.9847C61.29 75.6281 59.5992 75.914 59.9308 77.6047C59.9186 77.6721 59.9247 81.27 59.9308 81.2966C59.8352 81.8561 60.0651 82.097 60.5982 82.2767C60.6165 82.289 63.0316 83.408 65.0601 83.408C67.2677 83.408 67.6624 82.5748 68.6716 82.2624C69.1802 82.1052 69.7255 82.1215 70.2525 82.1399C70.7876 82.1583 71.3207 82.1909 71.8558 82.2216C72.7856 82.2747 73.8253 82.5095 73.8334 81.2639C73.8395 80.5472 73.5669 79.6405 73.984 78.9953C74.2444 78.593 74.7124 78.6686 75.1417 78.6441C75.632 78.6155 76.1468 78.5991 76.6046 78.4011C77.276 78.1111 77.5039 77.474 78.2526 77.2698C79.1743 77.0289 79.9271 77.668 82.0431 75.9507C94.1044 66.1309 92.0515 69.0612 93.6059 69.7799C94.1512 70.0352 95.0159 70.0454 95.4961 69.7125C96.0088 69.3572 95.9559 68.6671 97.1645 68.5874C97.1563 68.6221 97.1584 73.3288 97.1624 73.3717C97.0546 74.3682 98.8125 74.9828 99.8746 75.1646C101.671 75.4831 103.746 75.2238 105.791 75.0747C104.391 75.7894 103.69 76.206 103.875 77.6496C103.873 77.6721 103.867 81.2762 103.875 81.3415C103.679 82.8566 106.282 82.4503 108.107 82.6933C109.352 82.9138 110.251 83.5754 110.984 84.3064C110.229 85.2355 110.156 85.6582 110.221 86.3382C110.219 86.3525 110.131 90.7141 110.363 91.0081C111.094 91.9576 117.667 92.7744 119.494 91.4063C120.296 90.7999 120.205 89.8789 120.843 89.1949C122.264 87.6532 126.083 88.1861 128.296 87.0937C130.227 86.1401 130.772 84.0308 134.073 84.6148C134.872 84.7618 136.394 85.2273 137.949 84.8577C139.369 84.529 139.672 83.8368 139.531 82.4891C139.536 82.4564 139.538 78.8626 139.531 78.8013C139.676 77.4311 136.25 77.2535 134.874 77.2943C131.851 77.4005 128.595 77.6762 126.854 73.7291C127.904 72.8674 128.693 72.9143 129.572 72.4181C130.974 71.6095 131.196 70.6314 136.978 68.9264C139.621 68.1464 142.268 67.3602 144.862 66.4229C145.89 66.0513 146.923 65.6654 147.888 65.1508C148.299 64.9323 148.685 64.6709 149.119 64.4953C149.93 64.1645 150.82 64.0053 151.672 63.8276C152.215 63.7153 152.763 63.6071 153.308 63.5029C153.644 63.4376 153.981 63.3743 154.319 63.311C154.728 63.2354 155.249 63.313 155.538 62.9618C155.89 62.533 155.501 61.9368 155.554 61.4181C155.603 60.9382 155.79 60.4829 156.024 60.0663C156.592 59.0555 157.457 58.2143 158.356 57.4996C159.463 56.6195 160.926 55.5985 162.378 55.4658C164.232 55.2963 165.959 56.3438 167.308 54.647C168.389 53.2543 168.403 52.1496 168.356 50.4242C168.407 45.4847 168.399 45.9993 167.292 44.0451C167.259 42.8751 167.217 43.4734 168.299 42.3094C168.315 42.3135 169.247 41.4845 169.209 40.0735Z" fill="#EBB044"/>
<path d="M168.958 36.6144C168.881 36.7737 168.789 36.9391 168.678 37.0943C168.625 37.1718 168.566 37.2494 168.503 37.323C168.439 37.4005 168.372 37.4741 168.299 37.5455H168.295C168.228 37.619 168.159 37.6823 168.088 37.7497C167.575 38.2194 166.946 38.687 166.728 39.1995C166.647 39.3731 166.623 39.5589 166.665 39.7529C166.747 40.1266 167.101 40.441 167.231 40.8065C167.463 41.4661 166.932 42.1501 166.901 42.8342C166.877 43.5918 167.463 44.2799 167.839 44.9885C168.496 46.2198 168.517 47.594 167.937 48.8539C167.772 49.2072 167.561 49.5522 167.304 49.883C167.058 50.1934 166.753 50.5079 166.293 50.6835C165.143 51.1348 163.693 50.5814 162.372 50.7039C161.265 50.806 160.395 51.3594 159.617 51.8821C159.259 52.1251 158.897 52.3681 158.549 52.6234C157.505 53.3646 156.543 54.1609 155.963 55.0819C155.886 55.2085 155.819 55.3392 155.756 55.4698C155.564 55.868 155.461 56.3213 155.473 56.7644C155.481 57.1116 155.634 57.4526 155.562 57.7977C155.408 58.5369 154.795 58.4593 154.193 58.5695C153.676 58.6655 153.161 58.7594 152.645 58.8554C151.611 59.0453 150.557 59.2393 149.599 59.5681C148.366 59.9989 147.336 60.6401 146.215 61.1832C143.45 62.5166 140.115 63.2395 136.974 64.1625C134.852 64.7873 132.565 65.549 130.956 66.6761C130.492 67.0008 130.081 67.3602 129.568 67.6562C128.939 68.0115 128.099 68.1667 127.495 68.52C126.915 68.8651 126.398 69.2857 126.18 69.7758C125.828 70.5763 126.068 71.4196 126.311 72.2364C126.905 74.2252 127.92 76.5388 130.899 77.1738C132.329 77.4311 133.621 77.3433 134.872 77.3004C135.554 77.28 136.598 77.3147 137.525 77.4801C138.807 77.7027 139.859 78.1846 139.44 79.1239C139.243 79.5752 138.638 79.9345 137.947 80.0938C137.192 80.2735 136.172 80.2633 135.395 80.1224C134.858 80.0162 134.467 79.9243 134.071 79.8508C133.495 79.7487 132.901 79.6956 132.282 79.8079C130.465 80.1326 129.798 81.5885 128.294 82.3298C126.081 83.4222 122.262 82.8872 120.841 84.4309C120.203 85.115 120.296 86.0359 119.492 86.6424C118.845 87.1284 117.796 87.2876 116.825 87.3366C115.448 87.4102 114.056 87.3224 112.731 87.0896C112.369 87.0222 112.011 86.9487 111.663 86.8609C111.146 86.7343 110.609 86.5648 110.363 86.2442C110.145 85.9685 110.198 85.6337 110.324 85.3315C110.87 84.0226 112.746 82.8954 112.465 81.562C112.367 81.0862 111.997 80.6594 111.633 80.2429C110.782 79.273 109.743 78.2193 108.105 77.9294C106.978 77.7782 105.877 77.8518 105.045 77.7006C104.56 77.619 104.17 77.4577 103.966 77.1432C103.598 76.5612 104.31 75.9201 105.039 75.4892C106.416 74.6745 108.054 74.0435 109.814 73.6453C110.05 73.5922 110.288 73.5432 110.524 73.4901C111.736 73.2328 112.835 72.9653 113.169 72.1179C113.348 71.6422 113.073 71.2685 112.477 70.9928C111.964 70.7457 111.336 70.5763 110.674 70.4599C109.824 70.3088 108.914 70.2455 108.107 70.2312C105.37 70.1719 102.355 70.8417 99.8706 70.4006C99.3294 70.3088 98.8126 70.1577 98.3344 69.9392C97.6528 69.6288 97.0913 69.1387 97.1605 68.5956C97.195 68.3485 97.3578 68.1157 97.543 67.8911C98.017 67.3091 98.6315 66.77 98.9875 66.1534C99.3456 65.5367 99.4128 64.8057 98.8227 64.2809C98.5867 64.0726 98.2225 63.9276 97.8359 63.8582C97.2459 63.7561 96.5928 63.8296 96.2123 64.1339C95.9071 64.3809 95.8217 64.7158 95.4921 64.9445C95.1441 65.1875 94.5826 65.2508 94.0943 65.163C93.9152 65.1344 93.7463 65.0813 93.6019 65.0119C93.0566 64.7587 92.9793 64.1522 92.2977 64.0318C91.907 63.9644 91.6934 64.1196 91.4371 64.2748C89.9436 65.1773 88.4401 66.0799 87.1643 67.1131C86.6272 67.5501 86.2162 68.0156 85.7136 68.4567C85.1826 68.9121 84.4705 69.2674 83.8682 69.6737C83.1907 70.1393 82.6556 70.6824 82.0412 71.1827C81.4857 71.634 80.8672 72.0118 80.1022 72.3078C79.4735 72.5549 78.8977 72.3323 78.2506 72.5018C77.5019 72.706 77.274 73.3411 76.6026 73.6331C75.63 74.0598 73.9739 73.6678 73.3737 74.3171C73.099 74.6132 73.2149 74.9828 73.3309 75.3156C73.4896 75.7751 74.0471 76.8042 73.748 77.2637C73.4672 77.6966 72.7511 77.5026 72.3421 77.4801C71.7398 77.4474 71.1396 77.4086 70.5374 77.3821C69.9087 77.3535 69.2474 77.3229 68.6716 77.4944C68.1202 77.6639 67.7296 77.9947 67.2454 78.2214C67.164 78.2601 67.0765 78.2989 66.989 78.3275C66.8974 78.3622 66.8059 78.3908 66.7143 78.4194C66.3237 78.5399 65.8923 78.6093 65.4488 78.6277C65.3898 78.6318 65.3287 78.6379 65.2697 78.6318C65.2026 78.6359 65.1354 78.6359 65.0622 78.6359C64.8587 78.6359 64.6553 78.6257 64.4539 78.6114C64.4152 78.6073 64.3765 78.6012 64.3379 78.6012C64.1344 78.5766 63.931 78.5521 63.7295 78.5195C63.5566 78.4909 63.3816 78.4521 63.2168 78.4133C62.6797 78.2867 62.173 78.1172 61.6786 77.9334C61.5199 77.8742 61.3592 77.817 61.2046 77.7537C61.0357 77.6864 60.8526 77.6128 60.643 77.525C60.6288 77.521 60.6145 77.5148 60.6003 77.5046C60.5575 77.4903 60.5189 77.4699 60.4802 77.4556C60.4416 77.4352 60.4029 77.4209 60.3683 77.4025C60.2768 77.3637 60.1933 77.3147 60.1262 77.2616C60.0977 77.2412 60.0733 77.2188 60.0489 77.1942C60.0204 77.1657 60.0001 77.1371 59.9817 77.1064C59.9004 76.9758 59.9187 76.8349 59.9716 76.6899C60.2951 76.1038 60.7691 75.6423 61.2819 75.2197C61.5871 74.9726 61.9106 74.7337 62.2198 74.4968C63.6746 73.386 64.9564 72.1833 66.2362 70.9806C66.6757 70.5681 67.1314 70.0984 67.3471 69.6227C67.5221 69.249 67.5505 68.8753 67.3227 68.5159C67.0866 68.1524 66.6024 67.8666 66.3888 67.4868C66.287 67.3132 66.2972 67.1029 66.3847 66.915C66.458 66.7639 66.578 66.623 66.7367 66.523C66.7611 66.5087 66.7794 66.4944 66.8038 66.4801C66.8812 66.4372 66.9727 66.3984 67.0643 66.3739C67.2189 66.3208 67.3878 66.3065 67.5668 66.331C67.5709 66.331 67.577 66.331 67.5811 66.3351C67.5851 66.3351 67.5851 66.3351 67.5912 66.3392C67.5953 66.3351 67.5953 66.3351 67.6014 66.3392C67.988 66.4127 68.2484 66.5965 68.5007 66.7762C68.5923 66.8497 68.6899 66.9171 68.7957 66.9804C68.9605 67.0865 69.1335 67.1744 69.341 67.2091C69.3756 67.2091 69.4082 67.2131 69.4428 67.2131C69.4468 67.2131 69.4529 67.2172 69.457 67.2131C70.2403 67.2131 70.69 66.7619 71.2943 66.5822C71.337 66.5618 71.3858 66.5536 71.4346 66.5393C71.453 66.5291 71.4733 66.525 71.4936 66.5189H71.514C71.514 66.5189 71.514 66.5189 71.5181 66.5189C72.393 66.5863 72.867 66.7476 73.1946 66.9314C73.2231 66.9456 73.2577 66.9702 73.2862 66.9885C73.3146 67.0089 73.3492 67.0273 73.3777 67.0518C73.4306 67.0865 73.4794 67.1192 73.5283 67.158C73.862 67.4153 74.2058 67.691 74.6249 67.8707C74.7368 67.9135 74.8528 67.9523 75.0461 67.9911C75.0604 68.0013 75.0807 68.0013 75.099 68.0054C75.1194 68.0054 75.1336 68.0095 75.1519 68.0095C75.6972 68.0585 76.1814 67.9564 76.5639 67.7726C76.6128 67.7522 76.6616 67.7298 76.7043 67.6991C76.7715 67.6644 76.8305 67.6215 76.8874 67.5787C76.9505 67.5358 77.0034 67.4868 77.0563 67.4378C77.1092 67.3888 77.154 67.3397 77.1967 67.2867C77.2883 67.1703 77.3554 67.0539 77.4144 66.9273C77.5792 66.5638 77.6077 66.1697 77.6118 65.7879C77.6219 64.4728 77.3269 63.0373 75.8376 62.1593C75.1173 61.7325 74.1305 61.4364 73.7928 60.8484C73.4021 60.1684 74.039 59.3741 73.6626 58.6941C73.2373 57.9222 71.7337 57.665 70.8975 57.0503C70.0755 56.4439 69.984 55.5474 70.1772 54.7409C70.3136 54.1344 70.5882 53.5382 70.7388 52.9256C70.7673 52.8235 70.7876 52.7173 70.8019 52.6152C70.8161 52.5131 70.8304 52.411 70.8365 52.3048C70.8405 52.2129 70.8507 52.1067 70.8548 51.9985C70.8548 51.8392 70.8405 51.6881 70.7632 51.6003C70.3807 51.6003 70.1732 51.6044 70.0226 51.6003C69.9697 51.6003 69.9168 51.6003 69.8639 51.5962C69.1009 51.3921 68.8446 51.2757 68.6798 51.1593C68.6554 51.145 68.637 51.1246 68.6126 51.1103C68.167 50.7652 67.8822 50.3343 67.4041 50.0035C67.3451 49.9647 67.2921 49.93 67.2291 49.8973C67.1904 49.8769 67.1558 49.8585 67.1172 49.8381C66.9137 49.7258 66.6919 49.64 66.4559 49.5625C66.3969 49.5482 66.3399 49.5277 66.2769 49.5094C66.2199 49.4889 66.1609 49.4747 66.0978 49.4604C65.9045 49.4073 65.7011 49.3583 65.4976 49.3235C65.4488 49.3133 65.4 49.3031 65.3532 49.295C65.3003 49.2847 65.2514 49.2745 65.2026 49.2664C65.0764 49.246 64.9462 49.2235 64.8201 49.2031C64.6939 49.1827 64.5637 49.1602 64.4335 49.1398C64.1731 49.101 63.9106 49.0581 63.6563 49.0132C63.2656 48.9397 62.8831 48.8621 62.525 48.7559C60.5148 48.1698 59.3164 46.7915 57.3774 46.1075C56.9522 45.9564 56.5025 45.84 56.0346 45.7542C55.9145 45.7338 55.8067 45.7154 55.705 45.695C55.5218 45.6603 55.3367 45.6317 55.1495 45.6072C55.0579 45.5929 54.9766 45.5827 54.8972 45.5725C54.8586 45.5684 54.8199 45.5623 54.7812 45.5582C54.4292 45.5153 54.0712 45.4806 53.7171 45.4418C52.5615 45.3213 51.3061 45.2131 50.2603 45.5684C49.0477 45.9809 48.3742 46.9467 47.1616 47.3143C46.5858 47.4409 46.1361 47.4735 45.7353 47.4939C45.662 47.498 45.5908 47.498 45.5176 47.5042C45.367 47.5082 45.2226 47.5185 45.0781 47.5327C43.4097 47.7124 42.2256 48.6579 40.8583 49.3031C39.0983 50.1322 36.8358 50.4956 34.7056 50.2935C33.6761 50.1955 32.5591 49.9831 31.6557 50.3221C31.4868 50.3854 31.3322 50.467 31.1775 50.5589C31.1287 50.5875 31.0799 50.6222 31.0331 50.6508C30.8398 50.7774 30.6567 50.9081 30.4532 51.0184C30.4105 51.0388 30.3718 51.0572 30.3271 51.0715C30.3271 51.0755 30.323 51.0715 30.323 51.0715C29.8835 51.2614 29.4583 51.3716 29.0371 51.4206C29.0229 51.4206 29.0025 51.4247 28.9842 51.4247C28.5773 51.4737 28.1826 51.4594 27.8041 51.4043C27.7512 51.3941 27.7024 51.3839 27.6536 51.3696C27.6495 51.3737 27.6434 51.3696 27.6393 51.3696C27.2629 51.292 26.9862 51.2144 26.7604 51.1225C26.6098 51.0592 26.4552 50.9857 26.3005 50.8938C26.2334 50.8509 26.1846 50.806 26.1357 50.7733C26.0584 50.7202 25.9852 50.6529 25.9221 50.5834C25.8489 50.5099 25.7858 50.4323 25.7288 50.3507C25.6698 50.269 25.6128 50.1853 25.5538 50.1036C25.4379 49.9382 25.3219 49.7728 25.1713 49.6176C25.1225 49.5584 25.0655 49.5114 25.0065 49.4665C24.9577 49.4236 24.9089 49.3889 24.856 49.3542C24.8519 49.3501 24.8458 49.3501 24.8417 49.3501C24.8417 49.346 24.8377 49.346 24.8315 49.346C24.508 49.1908 24.329 49.1234 24.1927 49.0846C24.1255 49.0642 24.0564 49.0499 23.975 49.0356C23.9017 49.0213 23.8305 49.0111 23.7532 49.007C23.3463 48.9642 22.917 48.9642 22.4816 48.9887C22.4429 48.9846 22.4042 48.9887 22.3656 48.9927C22.211 48.9968 22.0523 49.007 21.8915 49.0213C21.393 49.0499 20.9007 49.0887 20.4266 49.0785C20.3249 49.0785 20.2292 49.0744 20.1275 49.0683C20.0298 49.0642 19.9342 49.054 19.8426 49.0438C19.6982 49.0295 19.5436 49.0091 19.3686 48.9866C19.334 48.9825 19.3014 48.9764 19.2668 48.9723C19.2465 48.9682 19.2323 48.9682 19.218 48.9621C19.1753 48.9519 19.1305 48.9478 19.0878 48.9376C19.0207 48.9233 18.9515 48.9131 18.8843 48.8947C18.512 48.8131 18.1681 48.7212 17.8406 48.6191C17.4153 48.4884 17.0003 48.3373 16.5832 48.178C16.4469 48.129 16.3166 48.0759 16.0908 47.9881C15.6167 47.8043 15.1427 47.6246 14.6706 47.4592C14.5445 47.4164 14.4143 47.3776 14.2881 47.3388C14.2006 47.3102 14.1152 47.2857 14.0277 47.2612C13.7428 47.1795 13.4376 47.106 13.0897 47.0386C12.9738 47.0182 12.8618 46.9998 12.752 46.9855C12.516 46.9508 12.2922 46.9324 12.0744 46.9222C11.987 46.9181 11.8954 46.9181 11.8038 46.9181C11.7021 46.914 11.6004 46.9181 11.4986 46.9222C11.4457 46.9222 11.3867 46.9222 11.3338 46.9263C11.3054 46.9304 11.2748 46.9304 11.2525 46.9365C10.0256 47.0733 8.98589 47.4552 7.91771 47.3449C7.85463 47.3306 7.78749 47.3163 7.72849 47.302C7.72849 47.302 7.72442 47.302 7.71831 47.2979C6.68472 47.0447 5.98278 46.5465 5.26659 46.1238C5.13637 46.0421 5.00005 45.9645 4.86577 45.891C4.54633 45.7215 4.20859 45.5766 3.82201 45.4826C3.01426 45.2886 1.85452 45.2212 1.74262 44.6679C1.60223 43.9838 2.1292 43.8143 1.38452 43.2079C1.04678 42.9322 0.86773 42.6647 0.808726 42.3931C0.759895 42.1604 0.804656 41.9235 0.910457 41.6846C1.01626 41.4416 1.18513 41.1986 1.39877 40.9433C2.32656 39.8121 3.28893 38.6972 4.23097 37.5762C4.45884 37.3046 4.7091 37.0187 5.1262 36.8778C5.38256 36.7859 5.66334 36.7614 5.95836 36.7757C6.02551 36.7798 6.09468 36.7859 6.16183 36.79C6.2249 36.7941 6.28797 36.8043 6.35511 36.8145C6.41819 36.8247 6.48533 36.8329 6.5484 36.8431C6.80884 36.8921 6.98381 36.9248 7.16286 36.9595C7.32767 36.9942 7.49247 37.0269 7.65524 37.0575C7.66948 37.0575 7.68373 37.0616 7.6939 37.0616C7.78139 37.082 7.8526 37.0902 7.92178 37.1004C7.97061 37.1106 8.01944 37.1147 8.06217 37.1208C8.12931 37.1249 8.18831 37.131 8.25139 37.1351C8.57082 37.1249 8.75394 37.1065 8.88009 37.0861C8.89026 37.0861 8.89433 37.082 8.90043 37.082C8.97368 37.0677 9.02658 37.0534 9.07948 37.033C9.10389 37.0228 9.12221 37.0085 9.14255 36.9983C9.28701 36.9186 9.3806 36.8533 9.45385 36.7859C9.47013 36.7696 9.48844 36.7532 9.50065 36.7349C9.51082 36.7247 9.52506 36.7104 9.53524 36.6961C9.55965 36.6614 9.57796 36.6328 9.5922 36.6001C9.71225 36.3469 9.65935 36.0467 9.50472 35.7997C9.25853 35.4158 8.82312 35.1115 8.50978 34.7521C7.80987 33.9558 7.78953 32.9675 8.20052 32.069C8.29208 31.8607 8.40805 31.6565 8.54844 31.4584C9.28294 30.415 10.52 29.5472 11.7916 28.7365C13.5801 27.591 16.4855 26.9518 17.6269 25.5061C18.5303 24.3667 21.1407 24.4586 22.7033 23.6684C23.3748 23.3294 23.7919 22.8679 24.0238 22.3534C24.3677 21.5958 24.329 20.7239 24.1642 19.9377C23.7878 18.1918 23.0472 16.4786 21.9648 14.8634C21.6514 14.402 21.3116 13.9425 21.1774 13.4382C21.0329 12.8889 21.1428 12.3518 21.3808 11.823C21.5721 11.3962 21.7165 10.9061 22.2639 11.0062C23.0106 11.143 23.798 11.5677 24.5121 11.8271C24.8315 11.9434 25.1896 12.0558 25.5518 12.1191C26.0198 12.1619 26.3209 12.1619 26.5427 12.1191C26.5854 12.115 26.6302 12.0986 26.6729 12.0843C26.7319 12.0639 26.7889 12.0415 26.8479 12.0108C27.0839 11.8904 27.2202 11.729 27.3016 11.5453C27.3545 11.433 27.3891 11.3166 27.4216 11.1859C27.4705 10.9878 27.5132 10.7775 27.6007 10.5896C27.6109 10.5753 27.621 10.561 27.6353 10.5467C28.0605 9.94028 28.9171 9.6687 29.8245 9.54618C29.9649 9.52781 30.1053 9.51147 30.2457 9.5033C30.3617 9.49309 30.4776 9.48288 30.5895 9.4788C30.7584 9.46859 30.9273 9.46451 31.0921 9.45838C34.5184 9.39508 37.9508 9.60948 41.2815 10.0934C41.6823 10.1465 42.075 10.2098 42.4697 10.2731C42.6834 10.3078 42.899 10.3466 43.1513 10.3895C43.2632 10.4099 43.3792 10.4283 43.5033 10.4487C44.0933 10.5549 44.6529 10.657 45.19 10.7591C45.717 10.8612 46.2399 10.9572 46.7607 11.0593C48.5736 11.4044 50.4007 11.7576 52.0101 12.3845C52.7548 12.6704 53.4791 13.0155 54.2054 13.3646C54.8097 13.6566 55.414 13.9507 56.0285 14.2182C56.1689 14.2754 56.3092 14.3346 56.4435 14.3918C57.0376 14.6286 57.6419 14.8389 58.2666 14.9778C58.411 15.0125 58.5616 15.0411 58.7732 15.0799C58.879 15.1003 58.9868 15.1146 59.0967 15.1289C59.4202 15.1677 59.7498 15.1922 60.0875 15.1922C60.2523 15.1922 60.4172 15.1881 60.5799 15.1779C61.174 15.1105 61.5281 15.0574 61.7885 15.0125C61.8027 15.0125 61.817 15.0084 61.8312 15.0023C61.9045 14.9921 61.9716 14.9778 62.0449 14.9635C62.0937 14.9533 62.1425 14.9431 62.1893 14.9349C62.3012 14.9104 62.4111 14.8859 62.523 14.8614C62.643 14.8328 62.7692 14.8083 62.8953 14.7797C63.0154 14.7511 63.1415 14.7226 63.2636 14.698C63.4528 14.6552 63.64 14.6164 63.819 14.5817C64.6838 14.402 65.4386 14.2999 66.1202 14.3877C66.1487 14.402 66.1792 14.4122 66.2077 14.4265C67.7642 15.1248 68.0979 15.4495 68.6187 15.5414C68.6533 15.5455 68.6859 15.5455 68.7205 15.5455C69.7988 15.5843 70.4519 14.8226 71.4041 14.7266C71.4326 14.7307 71.457 14.7307 71.4855 14.7368C72.2444 14.8185 72.631 15.0084 72.9362 15.2371C72.9789 15.2657 73.0176 15.3004 73.0624 15.3392C73.1051 15.3821 73.1539 15.4209 73.1987 15.4658C73.3045 15.5679 73.4123 15.67 73.5181 15.7762C73.6931 15.9457 73.8701 16.1213 74.0634 16.2765C74.161 16.3541 74.2607 16.4276 74.3686 16.495C74.4947 16.5726 74.6249 16.6399 74.7755 16.6992C74.8488 16.7278 74.9261 16.7584 75.0034 16.7768C75.0807 16.8013 75.1682 16.8196 75.2557 16.836C75.3188 16.8462 75.3818 16.8564 75.449 16.8564C75.4876 16.8605 75.5263 16.8666 75.5649 16.8605C75.8172 16.8809 76.0573 16.8564 76.2994 16.8013C76.3666 16.787 76.4358 16.7727 76.4968 16.7523C76.6311 16.7135 76.7674 16.6747 76.9037 16.6318C77.04 16.5828 77.1743 16.5358 77.3106 16.4868C77.5813 16.3847 77.8519 16.2785 78.1265 16.1805C78.3158 16.1131 78.509 16.0539 78.7023 16.0069C78.7939 15.9824 78.8814 15.9641 78.9729 15.9477C79.4124 15.8987 79.7278 15.8844 79.9923 15.8987C80.035 15.8987 80.0798 15.9028 80.1266 15.9089C80.2466 15.913 80.3544 15.9293 80.4643 15.9436C80.4989 15.9477 80.5274 15.9579 80.5559 15.9641H80.5599C80.6902 15.9886 80.8021 16.0172 80.9079 16.0417C80.9994 16.0621 81.091 16.0845 81.1785 16.109C81.3087 16.1478 81.4206 16.1826 81.5305 16.2213C81.6851 16.2806 81.8357 16.3418 81.9842 16.4051C82.3036 16.5501 82.6068 16.7114 82.9405 16.9238C83.1826 17.0749 83.4145 17.2832 83.6648 17.4812C83.9313 17.6895 84.2101 17.8978 84.5356 18.0387C84.617 18.0734 84.7045 18.1061 84.8062 18.1306C84.855 18.151 84.9039 18.1592 84.9568 18.1694C84.9812 18.1735 85.0097 18.1796 85.0443 18.1837C85.0544 18.1837 85.0646 18.1878 85.0727 18.1878C85.1602 18.202 85.2518 18.2061 85.3474 18.2061C85.4207 18.2061 85.498 18.202 85.5753 18.1959C86.1898 18.1326 86.4848 17.9448 86.6007 17.6956C86.8225 17.2158 86.383 16.5174 86.204 16.0764C85.9232 15.3964 85.9517 14.6654 86.263 13.9813C86.5153 13.4137 86.9588 12.8807 87.5631 12.4335C88.9121 11.4534 91.0281 10.9388 93.0159 11.1083C94.1044 11.2063 94.7942 10.9878 95.1909 10.5753C95.8685 10.8326 96.1045 10.9204 96.3507 10.9919C96.5195 11.0409 96.6844 11.0797 96.8532 11.1083C97.0953 11.1471 97.2683 11.1614 97.4372 11.1614C97.6305 11.1614 97.8237 11.141 98.013 11.0879C98.6518 10.9286 99.0282 10.51 99.4494 10.1608C99.5939 10.0403 99.7485 9.92395 99.9174 9.81164C100.729 9.28686 101.812 8.92339 102.929 9.00711C103.03 9.0214 103.126 9.03569 103.22 9.04999C103.224 9.04999 103.23 9.04999 103.234 9.05407C103.578 9.10716 103.828 9.16025 104.042 9.20926C104.06 9.21335 104.08 9.21947 104.099 9.22355C104.2 9.25214 104.302 9.28277 104.404 9.31136C104.453 9.32157 104.495 9.33586 104.544 9.35016C104.689 9.38895 104.829 9.43183 104.973 9.46655C105.032 9.48084 105.089 9.50126 105.152 9.50943C105.317 9.55844 105.486 9.59111 105.655 9.62582C105.718 9.63603 105.781 9.64011 105.838 9.65032C105.842 9.64624 105.848 9.65032 105.852 9.65032C106.042 9.67074 106.21 9.67891 106.355 9.67891C106.646 9.67891 106.857 9.63603 107.022 9.5421C107.201 9.43592 107.289 9.28073 107.429 9.15413C107.464 9.11941 107.502 9.09083 107.545 9.06632C107.574 9.0459 107.602 9.02753 107.637 9.01323C107.671 8.99894 107.7 8.97852 107.738 8.96423C107.767 8.95402 107.797 8.94381 107.83 8.93564C107.859 8.92543 107.889 8.91114 107.918 8.90705C108.149 8.81925 108.42 8.76616 108.695 8.74165C108.961 8.72327 109.236 8.73144 109.496 8.76207C109.651 8.78249 109.806 8.80495 109.96 8.83558C110.115 8.86417 110.265 8.8948 110.42 8.92339C110.493 8.93768 110.565 8.95197 110.638 8.96218C110.711 8.9826 110.782 8.99077 110.86 9.00507C111.087 9.04795 111.313 9.08266 111.551 9.09695C111.58 9.09695 111.604 9.10104 111.633 9.10104C112.402 9.14392 113.059 9.05816 113.712 9.06224C113.94 9.06224 114.172 9.07653 114.394 9.11125C114.418 9.11533 114.447 9.12146 114.471 9.12554C114.51 9.12962 114.544 9.13983 114.577 9.14596C114.636 9.16025 114.693 9.17046 114.746 9.18476C114.799 9.19905 114.847 9.21947 114.9 9.23376C114.982 9.25827 115.059 9.28686 115.128 9.32157C115.23 9.36445 115.322 9.41958 115.395 9.48084C115.429 9.50534 115.458 9.52985 115.486 9.55844V9.56252C116.003 10.0955 115.511 10.8102 115.761 11.4166C116.08 12.1926 117.438 12.5274 118.333 13.0808C118.367 13.1053 118.406 13.1237 118.439 13.1482C118.681 13.3136 118.878 13.5076 118.937 13.7261C118.966 13.8323 118.955 13.9405 118.913 14.0426C118.845 14.1937 118.705 14.3244 118.491 14.3958C118.245 14.4775 117.95 14.4693 117.684 14.5265C117.641 14.5367 117.602 14.5469 117.558 14.5612C117.277 14.6531 117.045 14.8144 116.963 14.988C116.911 15.1085 116.929 15.2351 117.045 15.3474C117.161 15.4597 117.258 15.5761 117.336 15.6966C117.346 15.717 117.354 15.7313 117.364 15.7497C117.383 15.7844 117.399 15.817 117.413 15.8518C117.423 15.866 117.427 15.8865 117.438 15.9048C117.558 16.1805 117.588 16.4725 117.525 16.7543C117.515 16.8033 117.501 16.8523 117.482 16.8993C117.468 16.9422 117.448 16.9912 117.423 17.0402C117.389 17.0933 117.356 17.1423 117.328 17.1852C117.324 17.1892 117.317 17.1954 117.317 17.1994C117.071 17.5486 116.892 17.7324 116.805 17.9325C116.801 17.9611 116.801 17.9917 116.801 18.0142C116.801 18.3062 116.955 18.5328 117.197 18.7125C117.56 18.9882 118.121 19.1536 118.628 19.27C119.092 19.3762 119.295 19.4211 119.503 19.464C119.889 19.5457 120.04 19.5763 120.188 19.6049C120.266 19.6192 120.343 19.6294 120.416 19.6437C120.9 19.7213 121.35 19.7846 121.775 19.8234C121.895 19.8336 122.017 19.8438 122.138 19.8479C122.78 19.8867 123.37 19.8683 123.954 19.7703C124.032 19.756 124.099 19.7417 124.168 19.7274C124.197 19.7233 124.227 19.7172 124.249 19.7131C124.679 19.6253 124.966 19.5681 125.226 19.5579C126.083 19.8642 126.072 20.0909 126.083 20.2951V20.2991C126.136 21.216 126.764 22.0981 127.798 22.7189C128.272 22.9945 128.838 23.2436 129.035 23.6316C129.373 24.2871 128.498 24.9956 128.667 25.6838C128.754 26.0615 129.151 26.3781 129.531 26.668C129.588 26.7109 129.643 26.7558 129.704 26.7946C129.733 26.813 129.757 26.8334 129.786 26.8477C130.168 27.1234 130.612 27.3909 131.086 27.5848C131.352 27.691 131.627 27.7748 131.902 27.8217C132.278 27.8809 132.579 27.885 132.868 27.836C132.988 27.8013 133.1 27.7625 133.198 27.7298C133.444 27.6522 133.627 27.5746 133.782 27.5011C133.806 27.4909 133.824 27.4807 133.849 27.4766C133.877 27.4623 133.902 27.448 133.93 27.4378C133.934 27.4337 133.94 27.4337 133.944 27.4337C133.979 27.4195 134.008 27.4052 134.042 27.3909C134.085 27.3766 134.13 27.3561 134.172 27.3419C134.183 27.3378 134.197 27.3316 134.207 27.3276C134.453 27.25 134.699 27.2153 134.945 27.2153C135.11 27.2153 135.279 27.2357 135.444 27.2581C135.454 27.2581 135.462 27.2622 135.472 27.2622C136.01 27.3541 136.541 27.5726 137.086 27.7911C137.202 27.8401 137.322 27.883 137.438 27.9279C137.867 28.0933 138.303 28.2485 138.758 28.3261C139.188 28.3996 139.615 28.4078 140.04 28.3751C140.199 28.3608 140.354 28.3404 140.514 28.3159C140.697 28.2914 140.876 28.2526 141.06 28.2179C141.818 28.0525 142.563 27.8095 143.298 27.6216C143.466 27.593 143.621 27.5624 143.766 27.5399C143.77 27.5399 143.77 27.5358 143.776 27.5399C144.128 27.4766 144.423 27.4337 144.679 27.4052C145.206 27.3459 145.564 27.3419 145.898 27.3766C146.404 27.4542 146.555 27.4889 146.691 27.5318C146.919 27.6053 147.121 27.7012 147.292 27.8238C147.355 27.8911 147.412 27.9647 147.46 28.032C147.721 28.3669 147.833 28.6732 147.973 28.9346C147.994 28.9734 148.012 29.0122 148.04 29.0469C148.069 29.1 148.103 29.1531 148.146 29.2021C148.213 29.2797 148.291 29.3532 148.392 29.4206C148.683 29.6146 149.109 29.6962 149.456 29.8514C149.776 29.9862 150.036 30.1802 150.317 30.3558C150.486 30.462 150.665 30.5702 150.862 30.6457C150.964 30.6662 151.06 30.6805 151.157 30.6886C152.331 30.8295 153.143 30.3925 154.01 30.3395C154.217 30.3252 154.417 30.3292 154.61 30.3537C154.785 30.3925 154.94 30.4313 155.074 30.4661C155.302 30.5232 155.481 30.5722 155.636 30.6212C155.684 30.6417 155.731 30.656 155.776 30.6702C155.935 30.7295 156.061 30.7764 156.191 30.8295C156.279 30.8642 156.366 30.903 156.451 30.9357C156.494 30.9561 156.543 30.9745 156.588 30.9888C156.911 31.1195 157.235 31.242 157.583 31.3237C157.79 31.3523 157.973 31.3768 158.138 31.4013C158.732 31.483 159.056 31.5136 159.298 31.532C159.41 31.536 159.501 31.5422 159.593 31.5463C159.699 31.5503 159.807 31.5565 159.906 31.5605C160.332 31.581 160.753 31.6096 161.153 31.6729C161.685 31.779 161.931 31.8525 162.159 31.9485C162.216 31.973 162.275 32.0016 162.327 32.0302C162.342 32.0343 162.356 32.0445 162.37 32.0547C162.399 32.069 162.429 32.0833 162.458 32.1078C162.511 32.1425 162.57 32.1813 162.633 32.2242C162.73 32.2875 162.826 32.3406 162.918 32.4141C163.092 32.555 163.255 32.7102 163.42 32.8613C163.487 32.9246 163.556 32.992 163.624 33.0553C163.683 33.1145 163.739 33.1676 163.799 33.2207C164.214 33.6045 164.649 33.9476 165.253 34.0946C165.359 34.1048 165.457 34.115 165.548 34.1191C165.949 34.1477 166.226 34.1395 166.458 34.1191C166.584 34.1048 166.694 34.0844 166.81 34.0701C166.863 34.0599 166.916 34.0558 166.968 34.0497C167.011 34.0456 167.05 34.0354 167.095 34.0354C167.386 33.9925 167.67 33.9619 167.935 33.9762C168.016 34.0007 168.09 34.0252 168.163 34.0538C168.167 34.0538 168.167 34.0538 168.173 34.0538C168.757 34.2723 168.971 34.5051 169.072 34.7337C169.086 34.7725 169.101 34.8113 169.111 34.8501C169.121 34.8706 169.125 34.8889 169.131 34.9073C169.282 35.4872 169.215 36.0712 168.958 36.6144Z" fill="#FFE07D"/>
<path d="M98.5003 3.06666C91.0882 3.02173 85.0433 9.01693 85.0006 16.4558C84.9558 23.8946 98.2908 39.048 98.2908 39.048C98.2908 39.048 111.797 24.0539 111.841 16.6151C111.886 9.17824 105.912 3.11158 98.5003 3.06666ZM98.3742 24.2847C94.0526 24.2581 90.5694 20.7214 90.5958 16.3843C90.6223 12.0472 94.1462 8.55136 98.4678 8.5779C102.789 8.60445 106.273 12.1411 106.246 16.4782C106.22 20.8154 102.696 24.3092 98.3742 24.2847Z" fill="#477B9E"/>
<path d="M98.4392 13.2461C96.6854 13.2359 95.2571 14.6531 95.2469 16.4132C95.2368 18.1714 96.6488 19.6068 98.4026 19.6171C100.154 19.6273 101.585 18.2101 101.595 16.45C101.605 14.6919 100.193 13.2564 98.4392 13.2461Z" fill="#477B9E"/>
<path d="M122.598 32.9748C117.392 32.9441 113.148 37.1547 113.117 42.378C113.087 47.6013 122.452 58.246 122.452 58.246C122.452 58.246 131.939 47.7157 131.97 42.4903C132 37.267 127.805 33.0054 122.598 32.9748ZM122.511 47.877C119.475 47.8586 117.03 45.3756 117.048 42.329C117.066 39.2824 119.54 36.8279 122.576 36.8463C125.612 36.8647 128.057 39.3477 128.039 42.3943C128.021 45.4409 125.544 47.8954 122.511 47.877Z" fill="#477B9E"/>
<path d="M122.555 40.1241C121.324 40.1159 120.319 41.1124 120.313 42.3478C120.305 43.5832 121.298 44.5919 122.529 44.598C123.76 44.6062 124.765 43.6097 124.771 42.3743C124.779 41.1389 123.786 40.1322 122.555 40.1241Z" fill="#477B9E"/>
<path d="M151.192 22.3287C147.472 22.3063 144.441 25.3141 144.418 29.0468C144.396 32.7795 151.088 40.3817 151.088 40.3817C151.088 40.3817 157.865 32.8591 157.888 29.1264C157.908 25.3958 154.911 22.3512 151.192 22.3287ZM151.129 32.9755C148.96 32.9633 147.214 31.1888 147.226 29.0121C147.238 26.8353 149.007 25.0833 151.175 25.0956C153.344 25.1078 155.09 26.8823 155.078 29.059C155.066 31.2337 153.298 32.9878 151.129 32.9755Z" fill="#477B9E"/>
<path d="M151.161 27.4356C150.282 27.4295 149.564 28.1421 149.56 29.0242C149.554 29.9064 150.264 30.6272 151.143 30.6313C152.021 30.6374 152.74 29.9247 152.744 29.0426C152.75 28.1625 152.042 27.4417 151.161 27.4356Z" fill="#477B9E"/>
<path d="M41.2311 0.861448C37.3673 0.838987 34.2157 3.96318 34.1933 7.84087C34.1709 11.7185 41.1212 19.6168 41.1212 19.6168C41.1212 19.6168 48.161 11.8002 48.1854 7.92254C48.2078 4.04691 45.0948 0.88391 41.2311 0.861448ZM41.1639 11.9207C38.9116 11.9064 37.0967 10.0646 37.1089 7.80207C37.1232 5.54162 38.9584 3.72019 41.2127 3.73244C43.4651 3.74674 45.28 5.58858 45.2678 7.85108C45.2555 10.1136 43.4183 11.935 41.1639 11.9207Z" fill="#477B9E"/>
<path d="M41.1987 6.16801C40.2852 6.16188 39.5405 6.90107 39.5344 7.81791C39.5283 8.73475 40.2648 9.48211 41.1784 9.48823C42.0919 9.49436 42.8366 8.75517 42.8427 7.83833C42.8488 6.91945 42.1123 6.17209 41.1987 6.16801Z" fill="#477B9E"/>
<path d="M65.7652 23.2653C61.698 23.2408 58.3815 26.5304 58.3571 30.6122C58.3327 34.6941 65.6513 43.011 65.6513 43.011C65.6513 43.011 73.0634 34.7819 73.0878 30.7C73.1102 26.6202 69.8324 23.2898 65.7652 23.2653ZM65.696 34.9085C63.3236 34.8942 61.4131 32.9544 61.4274 30.5734C61.4416 28.1925 63.3745 26.2751 65.7469 26.2894C68.1193 26.3037 70.0298 28.2436 70.0155 30.6245C70.0033 33.0054 68.0684 34.9228 65.696 34.9085Z" fill="#477B9E"/>
<path d="M65.7326 28.8521C64.7702 28.846 63.9869 29.6239 63.9808 30.5898C63.9747 31.5556 64.7499 32.3418 65.7123 32.3479C66.6746 32.354 67.458 31.5761 67.4641 30.6102C67.4702 29.6444 66.695 28.8582 65.7326 28.8521Z" fill="#477B9E"/>
<path d="M91.1994 45.6109C88.9511 45.5966 87.1159 47.416 87.1037 49.6724C87.0895 51.9287 91.1363 56.5272 91.1363 56.5272C91.1363 56.5272 95.2341 51.9777 95.2483 49.7214C95.2605 47.465 93.4477 45.6252 91.1994 45.6109ZM91.1608 52.0492C89.8505 52.041 88.7924 50.969 88.8006 49.652C88.8087 48.3369 89.8769 47.2751 91.1892 47.2833C92.4995 47.2915 93.5576 48.3635 93.5494 49.6805C93.5413 50.9956 92.4711 52.0553 91.1608 52.0492Z" fill="#477B9E"/>
<path d="M91.1805 48.6988C90.6495 48.6947 90.2141 49.1255 90.212 49.6585C90.2079 50.1914 90.6373 50.6284 91.1683 50.6304C91.6993 50.6345 92.1347 50.2037 92.1368 49.6707C92.1408 49.1378 91.7115 48.7028 91.1805 48.6988Z" fill="#477B9E"/>
<path d="M26.2161 30.1695C23.567 30.1532 21.4083 32.2952 21.392 34.9538C21.3757 37.6125 26.1408 43.0277 26.1408 43.0277C26.1408 43.0277 30.967 37.6696 30.9833 35.011C30.9995 32.3544 28.8652 30.1859 26.2161 30.1695ZM26.1714 37.7513C24.6271 37.7411 23.3819 36.4792 23.3921 34.9293C23.4022 33.3795 24.6596 32.1298 26.2039 32.14C27.7482 32.1502 28.9934 33.4122 28.9832 34.962C28.9751 36.5119 27.7156 37.7615 26.1714 37.7513Z" fill="#477B9E"/>
<path d="M26.1959 33.8081C25.5692 33.804 25.0585 34.3104 25.0545 34.9394C25.0504 35.5683 25.555 36.0808 26.1817 36.0849C26.8083 36.089 27.319 35.5826 27.3231 34.9537C27.3272 34.3227 26.8205 33.8102 26.1959 33.8081Z" fill="#477B9E"/>
</svg>
