<svg width="245" height="187" viewBox="0 0 245 187" fill="none" xmlns="http://www.w3.org/2000/svg">
<g opacity="0.15">
<path d="M115.224 133.265C115.224 162.906 77.7897 186.935 31.612 186.935C-14.5656 186.935 -52 162.906 -52 133.265C-52 103.623 -14.5656 79.5939 31.612 79.5939C77.7897 79.5939 115.224 103.623 115.224 133.265Z" fill="#00B4FF"/>
<path d="M155.94 147.676C155.94 169.358 138.864 186.935 117.799 186.935C96.7346 186.935 79.6583 169.358 79.6583 147.676C79.6583 125.993 96.7346 108.416 117.799 108.416C138.864 108.416 155.94 125.993 155.94 147.676Z" fill="#00B4FF"/>
<path d="M169.589 81.0037C169.589 117.826 140.589 147.676 104.817 147.676C69.0439 147.676 40.0444 117.826 40.0444 81.0037C40.0444 44.1817 69.0439 14.3316 104.817 14.3316C140.589 14.3316 169.589 44.1817 169.589 81.0037Z" fill="#00B4FF"/>
<path d="M244.768 96.5054C244.768 133.327 215.769 163.178 179.996 163.178C144.224 163.178 115.224 133.327 115.224 96.5054C115.224 59.6834 144.224 29.8333 179.996 29.8333C215.769 29.8333 244.768 59.6834 244.768 96.5054Z" fill="#00B4FF"/>
<path d="M71.6232 48.3499C71.6232 74.9454 50.6777 96.5053 24.8401 96.5053C-0.997459 96.5053 -21.943 74.9454 -21.943 48.3499C-21.943 21.7545 -0.997459 0.19458 24.8401 0.19458C50.6777 0.19458 71.6232 21.7545 71.6232 48.3499Z" fill="#00B4FF"/>
</g>
</svg>
