<svg width="345" height="205" viewBox="0 0 345 205" fill="none" xmlns="http://www.w3.org/2000/svg">
<g opacity="0.15">
<path d="M338.483 130.419C338.483 171.358 274.06 204.546 194.591 204.546C115.121 204.546 50.6981 171.358 50.6981 130.419C50.6981 89.4804 115.121 56.2929 194.591 56.2929C274.06 56.2929 338.483 89.4804 338.483 130.419Z" fill="#00B4FF"/>
<path d="M344.737 103.544C344.737 129.64 324.185 150.794 298.833 150.794C273.481 150.794 252.929 129.64 252.929 103.544C252.929 77.4478 273.481 56.2929 298.833 56.2929C324.185 56.2929 344.737 77.4478 344.737 103.544Z" fill="#00B4FF"/>
<path d="M270.491 70.8683C270.491 100.498 247.155 124.518 218.369 124.518C189.584 124.518 166.248 100.498 166.248 70.8683C166.248 41.2382 189.584 17.2182 218.369 17.2182C247.155 17.2182 270.491 41.2382 270.491 70.8683Z" fill="#00B4FF"/>
<path d="M104.796 109.943C104.796 139.573 81.4607 163.593 52.6749 163.593C23.8892 163.593 0.553711 139.573 0.553711 109.943C0.553711 80.3129 23.8892 56.2929 52.6749 56.2929C81.4607 56.2929 104.796 80.3129 104.796 109.943Z" fill="#00B4FF"/>
<path d="M215.377 85.6884C215.377 132.497 178.512 170.443 133.038 170.443C87.5627 170.443 50.6981 132.497 50.6981 85.6884C50.6981 38.8796 87.5627 0.933594 133.038 0.933594C178.512 0.933594 215.377 38.8796 215.377 85.6884Z" fill="#00B4FF"/>
</g>
</svg>
