<svg width="1920" height="1126" viewBox="0 0 1920 1126" fill="none" xmlns="http://www.w3.org/2000/svg">
<path fill-rule="evenodd" clip-rule="evenodd" d="M254.747 714.293C286.649 679.692 293.241 617.986 338.451 604.911C383.618 591.849 424.204 634.345 467.458 652.778C510.961 671.316 565.6 673.798 592.068 712.986C618.888 752.695 612.634 805.978 602.575 852.829C593.389 895.613 563.832 928.062 538.266 963.576C509.356 1003.74 491.913 1061.71 443.821 1073.36C395.719 1085.02 352.542 1043.54 309.552 1019.02C271.724 997.44 236.292 974.297 209.704 939.805C179.902 901.144 139.295 858.421 148.856 810.552C158.434 762.601 221.602 750.243 254.747 714.293Z" fill="#00B4FF"/>
<path fill-rule="evenodd" clip-rule="evenodd" d="M1829.24 862.949C1728.92 866.764 1625.7 949.628 1537.91 900.933C1450.21 852.286 1453.41 726.983 1416.21 633.848C1378.8 540.177 1300.35 453.82 1319.79 354.844C1339.49 254.549 1429.47 183.848 1515.45 128.576C1593.96 78.1011 1687.49 73.9791 1779.66 59.2093C1883.88 42.5068 1997.78 -18.3243 2087.75 36.8587C2177.75 92.0524 2179.98 219.743 2207.57 321.647C2231.85 411.312 2250.16 499.705 2238 591.799C2224.37 695.026 2220.86 820.702 2134.09 878.259C2047.18 935.913 1933.46 858.985 1829.24 862.949Z" fill="#FFF000"/>
<path fill-rule="evenodd" clip-rule="evenodd" d="M184.759 551.388C204.005 561.702 226.869 565.482 240.6 582.46C256.068 601.588 270.522 626.376 264.737 650.286C259.006 673.974 232.328 684.696 212.452 698.799C196.412 710.18 180.134 720.796 160.743 724.076C141.461 727.338 122.929 721.789 103.929 717.155C79.0228 711.081 46.815 714.455 32.9302 692.905C19.1437 671.507 36.1254 643.867 40.5601 618.802C44.7947 594.868 42.4233 568.361 58.2319 549.899C74.4152 530.999 99.9313 520.115 124.811 520.407C147.867 520.679 164.436 540.497 184.759 551.388Z" fill="#00B4FF"/>
</svg>
