<svg width="144" height="94" viewBox="0 0 144 94" fill="none" xmlns="http://www.w3.org/2000/svg">
<g opacity="0.15">
<path d="M27.3222 67.0163C27.3222 81.8691 46.0798 93.9097 69.2186 93.9097C92.3574 93.9097 111.115 81.8691 111.115 67.0163C111.115 52.1635 92.3574 40.1229 69.2186 40.1229C46.0798 40.1229 27.3222 52.1635 27.3222 67.0163Z" fill="#00B4FF"/>
<path d="M6.92084 74.2375C6.92084 85.1022 15.4774 93.9098 26.0325 93.9098C36.5876 93.9098 45.1442 85.1022 45.1442 74.2375C45.1442 63.3728 36.5876 54.5652 26.0325 54.5652C15.4774 54.5652 6.92084 63.3728 6.92084 74.2375Z" fill="#00B4FF"/>
<path d="M0.0810699 40.8294C0.0810699 59.2802 14.6122 74.2375 32.5372 74.2375C50.4622 74.2375 64.9933 59.2802 64.9933 40.8294C64.9933 22.3786 50.4622 7.42121 32.5372 7.42121C14.6122 7.42121 0.0810699 22.3786 0.0810699 40.8294Z" fill="#00B4FF"/>
<path d="M78.6589 48.7991C78.6589 67.25 93.19 82.2073 111.115 82.2073C129.04 82.2073 143.571 67.25 143.571 48.7991C143.571 30.3483 129.04 15.391 111.115 15.391C93.19 15.391 78.6589 30.3483 78.6589 48.7991Z" fill="#00B4FF"/>
<path d="M49.1704 24.4672C49.1704 37.7937 59.6658 48.5969 72.6126 48.5969C85.5593 48.5969 96.0547 37.7937 96.0547 24.4672C96.0547 11.1407 85.5593 0.337402 72.6126 0.337402C59.6658 0.337402 49.1704 11.1407 49.1704 24.4672Z" fill="#00B4FF"/>
</g>
</svg>
