<svg width="2131" height="266" viewBox="0 0 2131 266" fill="none" xmlns="http://www.w3.org/2000/svg">
<path d="M10 60.0001C10 60.0001 210 15.999 354 79.9999C498 144.001 560 237.999 778 218C996 198.001 1028 112 1268 112C1508 112 1586 218 1782 190C1978 162 2098 34 2098 34" stroke="#EEF3FF" stroke-width="90"/>
<path d="M10 62.7179C10 62.7179 210 18.7168 354 82.7177C498 146.719 560 240.717 778 220.718C996 200.719 1028 114.718 1268 114.718C1508 114.718 1586 220.718 1782 192.718C1978 164.718 2098 36.7178 2098 36.7178" stroke="#D0D9EE" stroke-width="5" stroke-dasharray="10 10 10 10 10 10"/>
</svg>
